<svg aria-hidden="true" class="header-logo-vector" focusable="false" xmlns="http://www.w3.org/2000/svg" xmlns:xlink="http://www.w3.org/1999/xlink" x="0px" y="0px" viewBox="0 0 469 181" style="enable-background:new 0 0 469 181;" xml:space="preserve">
    <path class="st0" d="M2,92.3l0,0.2c0.1,0.9,0.9,1.6,1.8,1.6c1,0,1.8-0.8,1.9-1.8l0-0.2l0-0.1C7.4,53.4,39,23.2,77.6,23.2
        c1,0,1.8-0.8,1.8-1.8c0-1-0.8-1.8-1.8-1.8C37,19.6,3.8,51.4,2,92C2,92.1,2,92.2,2,92.3C2,92.3,2,92.3,2,92.3C2,92.3,2,92.3,2,92.3z
        "></path>
    <path class="st0" d="M2,92c1.8-40.6,35-72.4,75.6-72.4c1,0,1.8,0.8,1.8,1.8c0,1-0.8,1.8-1.8,1.8C39,23.2,7.4,53.4,5.7,92l0,0.1
        l0,0.2c0,1-0.9,1.8-1.9,1.8c-0.9,0-1.6-0.7-1.8-1.6l0-0.2c0,0,0,0,0,0c0,0,0,0,0-0.1C2,92.2,2,92.1,2,92z"></path>
    <path class="st0" d="M77.6,167.5c-18.1,0-35.5-6.8-48.8-19.1c-13.3-12.2-21.4-28.8-23-46.7l0-0.1l0-0.1c0-0.1,0-0.2,0-0.2
        c0-1-0.9-1.8-1.9-1.8c-1,0-1.9,0.8-1.9,1.9c1.5,18.9,10,36.5,24,49.5c14.1,13.1,32.3,20.3,51.5,20.3c1,0,1.8-0.8,1.8-1.8
        S78.6,167.5,77.6,167.5z"></path>
    <path class="st0" d="M77.6,171.1c-19.2,0-37.5-7.2-51.5-20.3c-14-13-22.5-30.6-24-49.5c0-1,0.8-1.9,1.9-1.9c1,0,1.8,0.8,1.9,1.8
        c0,0.1,0,0.2,0,0.2l0,0.1l0,0.1c1.6,17.9,9.7,34.5,23,46.7c13.3,12.3,30.7,19.1,48.8,19.1c1,0,1.8,0.8,1.8,1.8
        S78.6,171.1,77.6,171.1z"></path>
    <path class="st0" d="M77.6,146.6c-25.9,0-47.7-19.4-50.8-45.1l0-0.1l0-0.2c-0.1-1-0.9-1.8-1.9-1.8c-1,0-1.8,0.8-1.9,1.8
        c3,27.9,26.5,48.9,54.6,48.9c1,0,1.8-0.8,1.8-1.8S78.6,146.6,77.6,146.6z"></path>
    <path class="st1" d="M77.6,150.2c-28.1,0-51.5-21-54.6-48.9c0-1,0.9-1.8,1.9-1.8c1,0,1.8,0.8,1.9,1.8l0,0.2l0,0.1
        c3.1,25.7,25,45.1,50.8,45.1c1,0,1.8,0.8,1.8,1.8S78.6,150.2,77.6,150.2z"></path>
    <path class="st0" d="M77.6,40.5c-28.9,0-52.9,22.6-54.7,51.5c0,0.1,0,0.2-0.1,0.3c0,0,0,0.1,0,0.1c0,0,0,0,0,0l0,0.2
        c0.1,0.9,0.9,1.6,1.8,1.6c1,0,1.8-0.8,1.9-1.8c0,0,0-0.1,0-0.2l0-0.1l0-0.1c1.7-26.9,24.2-47.9,51.1-47.9c1,0,1.8-0.8,1.8-1.8
        S78.6,40.5,77.6,40.5z"></path>
    <path class="st1" d="M77.6,44.1c-26.9,0-49.3,21.1-51.1,47.9l0,0.1l0,0.1c0,0.1,0,0.1,0,0.2c0,1-0.9,1.8-1.9,1.8
        c-0.9,0-1.6-0.7-1.8-1.6l0-0.2c0,0,0,0,0,0c0,0,0-0.1,0-0.1c0-0.1,0-0.2,0.1-0.3c1.8-28.9,25.8-51.5,54.7-51.5c1,0,1.8,0.8,1.8,1.8
        S78.6,44.1,77.6,44.1z"></path>
    <path class="st0" d="M77.6,63.1c-16.3,0-30.1,12.3-32,28.5l-0.1,0.2c0,0.1-0.1,0.2-0.1,0.3c0,0,0,0.1,0,0.2l0,0l0,0.2
        c0.1,0.9,0.9,1.6,1.8,1.6c1,0,1.8-0.8,1.9-1.8l0-0.2l0-0.1c1.7-14.4,13.9-25.3,28.4-25.3c1,0,1.8-0.8,1.8-1.8
        C79.4,63.9,78.6,63.1,77.6,63.1z"></path>
    <path class="st0" d="M77.6,66.7c-14.5,0-26.7,10.9-28.4,25.3l0,0.1l0,0.2c-0.1,1-0.9,1.8-1.9,1.8c-0.9,0-1.6-0.7-1.8-1.6l0-0.2l0,0
        c0-0.1,0-0.1,0-0.2c0-0.1,0-0.2,0.1-0.3l0.1-0.2c1.9-16.3,15.6-28.5,32-28.5c1,0,1.8,0.8,1.8,1.8C79.4,65.9,78.6,66.7,77.6,66.7z"></path>
    <path class="st0" d="M77.6,124c-13.1,0-24.6-9.1-27.8-21.7h-0.2l0-0.9c0-1-0.8-1.9-1.9-1.9c-1,0-1.9,0.8-1.9,1.9
        c0,0.3,0.1,0.5,0.2,0.8l0.1,0.2c3.2,14.7,16.5,25.3,31.4,25.3c1,0,1.8-0.8,1.8-1.8S78.6,124,77.6,124z"></path>
    <path class="st0" d="M77.6,127.6c-15,0-28.2-10.6-31.4-25.3l-0.1-0.2c-0.1-0.3-0.2-0.5-0.2-0.8c0-1,0.8-1.9,1.9-1.9
        c1,0,1.9,0.8,1.9,1.9l0,0.9h0.2C53,114.9,64.6,124,77.6,124c1,0,1.8,0.8,1.8,1.8S78.6,127.6,77.6,127.6z"></path>
    <path class="st0" d="M97.8,54.7c0.4,0,0.8-0.2,1.2-0.5c0.3-0.3,0.5-0.7,0.5-1.2V38.9h13.8c0.4,0,0.8-0.2,1.2-0.5
        c0.3-0.3,0.5-0.7,0.5-1.2c0-0.5-0.2-0.9-0.5-1.2c-0.3-0.3-0.7-0.5-1.2-0.5H99.5V23h15.9c0.4,0,0.8-0.2,1.2-0.5
        c0.3-0.3,0.5-0.7,0.5-1.2c0-0.4-0.2-0.8-0.5-1.1c-0.3-0.3-0.7-0.5-1.1-0.5l-17.6,0c-1,0.1-1.5,0.7-1.5,1.6V53
        c0,0.4,0.2,0.8,0.5,1.1C97,54.5,97.3,54.7,97.8,54.7z"></path>
    <path class="st0" d="M127.1,54.7h17.6c0.4,0,0.8-0.2,1.1-0.5c0.3-0.3,0.5-0.7,0.5-1.2c0-0.5-0.2-0.9-0.5-1.2
        c-0.3-0.3-0.7-0.5-1.1-0.5h-15.8V38.9h13.8c0.4,0,0.8-0.2,1.1-0.5c0.3-0.3,0.5-0.7,0.5-1.1c0-0.4-0.2-0.8-0.5-1.2
        c-0.3-0.3-0.7-0.5-1.2-0.5h-13.8V23h15.8c0.4,0,0.8-0.2,1.1-0.5c0.3-0.3,0.5-0.7,0.5-1.2c0-0.5-0.2-0.9-0.5-1.2
        c-0.3-0.3-0.7-0.5-1.1-0.5h-17.5c-0.4,0-0.8,0.2-1.1,0.5c-0.3,0.3-0.5,0.7-0.5,1.1V53c0,0.4,0.2,0.8,0.4,1.1
        C126.3,54.4,126.7,54.6,127.1,54.7z"></path>
    <path class="st0" d="M133.3,16.1c0.6,0,1.2-0.3,1.7-0.8l3.9-3.8c0.4-0.4,0.7-0.8,0.7-1.2c0-0.6-0.7-1-0.9-1.1
        c-0.5-0.3-1.1-0.4-1.6-0.4c-0.6,0-1.2,0.4-1.7,1.1l-3,4.5c-0.2,0.3-0.3,0.5-0.3,0.8C132.1,15.5,132.2,16.1,133.3,16.1z"></path>
    <path class="st0" d="M155.9,54.7h6.5c4.8,0,9-1.7,12.3-5.1c3.4-3.4,5.1-7.5,5.1-12.3c0-4.8-1.7-9-5.1-12.4
        c-3.4-3.4-7.6-5.1-12.4-5.1H156c-0.4,0-0.8,0.2-1.1,0.5c-0.3,0.3-0.5,0.7-0.5,1.1V53c0,0.4,0.2,0.8,0.4,1.1
        C155.2,54.4,155.5,54.6,155.9,54.7z M162.4,51.4h-4.7V23h4.7c3.9,0,7.3,1.4,10,4.2c2.8,2.8,4.1,6.1,4.1,10c0,3.9-1.4,7.3-4.1,10
        C169.7,50,166.3,51.4,162.4,51.4z"></path>
    <path class="st0" d="M197.1,16.1c0.6,0,1.2-0.3,1.7-0.8l3.9-3.8c0.4-0.4,0.7-0.8,0.7-1.2c0-0.6-0.7-1-0.9-1.1
        c-0.5-0.3-1.1-0.4-1.6-0.4c-0.6,0-1.2,0.4-1.7,1.1l-3,4.5c-0.2,0.3-0.3,0.5-0.3,0.8C195.9,15.5,196,16.1,197.1,16.1z"></path>
    <path class="st0" d="M190.9,54.7h17.6c0.4,0,0.8-0.2,1.1-0.5c0.3-0.3,0.5-0.7,0.5-1.2c0-0.5-0.2-0.9-0.5-1.2
        c-0.3-0.3-0.7-0.5-1.1-0.5h-15.8V38.9h13.8c0.4,0,0.8-0.2,1.1-0.5c0.3-0.3,0.5-0.7,0.5-1.1c0-0.4-0.2-0.8-0.5-1.2
        c-0.3-0.3-0.7-0.5-1.2-0.5h-13.8V23h15.8c0.4,0,0.8-0.2,1.1-0.5c0.3-0.3,0.5-0.7,0.5-1.2c0-0.5-0.2-0.9-0.5-1.2
        c-0.3-0.3-0.7-0.5-1.1-0.5H191c-0.4,0-0.8,0.2-1.1,0.5c-0.3,0.3-0.5,0.7-0.5,1.1V53c0,0.4,0.2,0.8,0.4,1.1
        C190.1,54.4,190.5,54.6,190.9,54.7z"></path>
    <path class="st0" d="M219.2,54.7c0.4,0,0.8-0.2,1.2-0.5c0.3-0.3,0.5-0.7,0.5-1.2V40h7.7l0.2,0c1.3,0.2,2.6,0.8,3.9,1.7
        c1.7,1.3,2.6,2.9,2.6,4.8c0,5,1.2,7.6,3.6,7.6l0.6,0l0.3,0c0.9-0.3,1.3-1.1,1-2.1c-0.2-0.7-0.8-1.1-1.5-1.1
        c-0.3-0.4-0.7-1.5-0.7-3.7c0-2.3-0.5-4.1-1.4-5.4c-0.8-1.2-1.9-2.2-3.1-3c1.4-0.8,2.6-1.9,3.5-3.3c1.1-1.7,1.6-3.5,1.6-5.5
        c0-2.8-1-5.2-2.9-7.2c-2-2-4.4-3-7.2-3l-9.8,0c-0.4,0-0.7,0.2-1,0.5c-0.3,0.3-0.4,0.7-0.4,1.1V53c0,0.4,0.2,0.8,0.5,1.1
        C218.3,54.5,218.7,54.7,219.2,54.7z M220.8,36.8V23h8c1.9,0,3.5,0.7,4.9,2c1.4,1.4,2,2.9,2,4.8c0,1.9-0.6,3.5-2,4.8
        c-1.3,1.3-2.9,2-4.7,2.1H220.8z"></path>
    <path class="st0" d="M247.4,54.6l0.6,0.1c0.7,0,1.3-0.4,1.5-1.1l2.9-7.7h14.9l2.9,7.7c0.3,0.7,0.8,1.1,1.5,1.1h0l0.5-0.1l0.1,0
        c0.4-0.2,0.7-0.5,0.9-0.9c0.2-0.4,0.2-0.9,0-1.2l-11.8-31.5c-0.2-0.7-0.8-1-1.5-1c-0.8,0-1.3,0.3-1.6,1l-11.8,31.5
        c-0.2,0.4-0.2,0.8,0,1.3C246.7,54.1,247,54.4,247.4,54.6z M253.7,42.6l6.3-16.6l6.2,16.6H253.7z"></path>
    <path class="st0" d="M303,22.5c0.3-0.3,0.5-0.7,0.5-1.2c0-0.4-0.2-0.8-0.5-1.1c-0.3-0.3-0.7-0.5-1.1-0.5H279
        c-0.4,0-0.8,0.2-1.1,0.5c-0.3,0.3-0.5,0.7-0.5,1.1c0,0.4,0.2,0.8,0.5,1.2c0.3,0.3,0.7,0.5,1.2,0.5h9.8v30c0,0.4,0.2,0.8,0.5,1.1
        c0.3,0.3,0.7,0.5,1.1,0.5c0.4,0,0.8-0.2,1.1-0.5c0.3-0.3,0.5-0.7,0.5-1.1V23h9.8C302.3,23,302.7,22.8,303,22.5z"></path>
    <path class="st0" d="M313.5,54.7c0.4,0,0.8-0.2,1.2-0.5c0.3-0.3,0.5-0.7,0.5-1.2V21.3c0-0.4-0.2-0.8-0.5-1.2
        c-0.7-0.6-1.7-0.6-2.3,0c-0.3,0.3-0.5,0.7-0.5,1.1V53c0,0.4,0.2,0.8,0.5,1.1C312.6,54.5,313,54.7,313.5,54.7z"></path>
    <path class="st0" d="M341.7,54.7c4.7,0,8.7-1.7,11.9-5.2c3.2-3.4,4.9-7.6,4.9-12.5c0-4.9-1.7-9.1-4.9-12.5
        c-3.2-3.4-7.2-5.2-11.9-5.2c-4.7,0-8.7,1.7-11.9,5.2c-3.2,3.4-4.9,7.6-4.9,12.5c0,4.9,1.7,9.1,4.9,12.5
        C333,52.9,337,54.7,341.7,54.7z M341.7,22.6c3.7,0,6.9,1.4,9.5,4.1c2.6,2.8,4,6.2,4,10.2c0,4-1.4,7.4-4,10.2
        c-2.6,2.8-5.8,4.2-9.5,4.2c-3.7,0-6.9-1.4-9.5-4.2c-2.6-2.8-4-6.2-4-10.3c0-4,1.3-7.5,4-10.2C334.7,24,338,22.6,341.7,22.6z"></path>
    <path class="st0" d="M391,20.5c-0.3,0.3-0.5,0.7-0.5,1.1V48l-19.8-27.4c-0.2-0.4-0.6-0.6-1.1-0.7c-0.5-0.1-0.9,0.1-1.4,0.4
        c-0.3,0.2-0.7,0.7-0.5,1.6V53c0,0.4,0.2,0.8,0.5,1.1c0.6,0.6,1.7,0.6,2.3,0c0.3-0.3,0.5-0.7,0.5-1.1V26.6l19.7,27.3l0.2,0.2
        c0.3,0.4,0.7,0.6,1.2,0.6c0.5,0,0.9-0.2,1.2-0.5c0.3-0.3,0.5-0.7,0.5-1.2V21.7c0-0.4-0.2-0.8-0.5-1.2
        C392.6,19.9,391.6,19.9,391,20.5z"></path>
    <path class="st0" d="M97.8,112.9c0.4,0,0.8-0.2,1.2-0.5c0.3-0.3,0.5-0.7,0.5-1.2V97.1h13.8c0.4,0,0.8-0.2,1.2-0.5
        c0.3-0.3,0.5-0.7,0.5-1.2c0-0.5-0.2-0.9-0.5-1.2c-0.3-0.3-0.7-0.5-1.2-0.5H99.5V81.2h15.9c0.4,0,0.8-0.2,1.2-0.5
        c0.3-0.3,0.5-0.7,0.5-1.2c0-0.4-0.2-0.8-0.5-1.1c-0.3-0.3-0.7-0.5-1.1-0.5l-17.6,0c-1,0.1-1.5,0.7-1.5,1.6v31.7
        c0,0.4,0.2,0.8,0.5,1.1C97,112.7,97.3,112.9,97.8,112.9z"></path>
    <path class="st0" d="M136,98.3c1.3,0.2,2.6,0.8,3.9,1.7c1.7,1.3,2.6,2.9,2.6,4.8c0,5,1.2,7.6,3.6,7.6l0.6,0l0.3,0
        c0.9-0.3,1.3-1.1,1-2.1c-0.2-0.7-0.8-1.1-1.5-1.1c-0.3-0.4-0.7-1.5-0.7-3.7c0-2.3-0.5-4.1-1.4-5.4c-0.8-1.2-1.9-2.2-3.1-3
        c1.4-0.8,2.6-1.9,3.5-3.3c1.1-1.7,1.6-3.5,1.6-5.5c0-2.8-1-5.2-2.9-7.2c-2-2-4.4-3-7.2-3l-9.8,0c-0.4,0-0.7,0.2-1,0.5
        c-0.3,0.3-0.4,0.7-0.4,1.1v31.7c0,0.4,0.2,0.8,0.5,1.1c0.3,0.3,0.7,0.5,1.1,0.5c0.4,0,0.8-0.2,1.2-0.5c0.3-0.3,0.5-0.7,0.5-1.2
        v-13h7.7L136,98.3z M143.1,88c0,1.9-0.6,3.5-2,4.8c-1.3,1.3-2.9,2-4.7,2.1h-8.2V81.2h8c1.9,0,3.5,0.7,4.9,2
        C142.4,84.6,143.1,86.1,143.1,88z"></path>
    <path class="st0" d="M174.7,104.1l2.9,7.7c0.3,0.7,0.8,1.1,1.5,1.1h0l0.5-0.1l0.1,0c0.4-0.2,0.7-0.5,0.9-0.9
        c0.2-0.4,0.2-0.9,0-1.2l-11.8-31.5c-0.2-0.7-0.8-1-1.5-1c-0.8,0-1.3,0.3-1.6,1l-11.8,31.5c-0.2,0.4-0.2,0.8,0,1.3
        c0.2,0.4,0.5,0.7,0.9,0.9l0.6,0.1c0.7,0,1.3-0.4,1.5-1.1l2.9-7.7H174.7z M173.5,100.8h-12.5l6.3-16.6L173.5,100.8z"></path>
    <path class="st0" d="M210.6,112.2c0.3,0.4,0.7,0.6,1.2,0.6c0.5,0,0.9-0.2,1.2-0.5c0.3-0.3,0.5-0.7,0.5-1.2V79.9
        c0-0.4-0.2-0.8-0.5-1.2c-0.7-0.6-1.7-0.6-2.3,0c-0.3,0.3-0.5,0.7-0.5,1.1v26.3l-19.8-27.4c-0.2-0.4-0.6-0.6-1.1-0.7
        c-0.5-0.1-0.9,0.1-1.4,0.4c-0.3,0.2-0.7,0.7-0.5,1.6v31.1c0,0.4,0.2,0.8,0.5,1.1c0.6,0.6,1.7,0.6,2.3,0c0.3-0.3,0.5-0.7,0.5-1.1
        V84.8l19.7,27.3L210.6,112.2z"></path>
    <path class="st0" d="M239.3,118.5l2.8-5.7c4-0.1,7.6-1.4,10.7-3.8c0.4-0.3,0.6-0.7,0.6-1.1c0-0.5-0.1-0.9-0.4-1.2
        c-0.2-0.4-0.6-0.6-1.1-0.7c-0.5-0.1-0.9,0-1.3,0.3c-2.5,2.1-5.7,3.2-9.6,3.2c-3.8,0-7.2-1.4-10.1-4.2c-2.9-2.8-4.3-6.2-4.3-10.2
        s1.5-7.4,4.3-10.2c2.9-2.8,6.4-4.2,10.5-4.2c3.4,0,6.5,1.1,9.2,3.2c0.3,0.3,0.7,0.4,1.2,0.3c0.5,0,0.9-0.3,1.1-0.6
        c0.3-0.3,0.5-0.8,0.4-1.2c-0.1-0.4-0.3-0.8-0.6-1.1c-3.3-2.5-7.1-3.8-11.3-3.8c-5,0-9.3,1.8-12.8,5.2c-3.5,3.4-5.3,7.6-5.3,12.5
        c0,4.9,1.8,9.1,5.3,12.5c2.9,2.8,6.3,4.5,10.2,5l-3.1,4.5c-0.2,0.4-0.3,0.7-0.3,1c0,0.4,0.2,0.7,0.7,1.1c0.4,0.3,0.9,0.5,1.5,0.5
        C238.4,119.8,238.9,119.3,239.3,118.5z"></path>
    <path class="st0" d="M284,111.8c0.3,0.7,0.8,1.1,1.5,1.1h0l0.5-0.1l0.1,0c0.4-0.2,0.7-0.5,0.9-0.9c0.2-0.4,0.2-0.9,0-1.2
        l-11.8-31.5c-0.2-0.7-0.8-1-1.5-1c-0.8,0-1.3,0.3-1.6,1l-11.8,31.5c-0.2,0.4-0.2,0.8,0,1.3c0.2,0.4,0.5,0.7,0.9,0.9l0.6,0.1
        c0.7,0,1.3-0.4,1.5-1.1l2.9-7.7h14.9L284,111.8z M279.9,100.8h-12.5l6.3-16.6L279.9,100.8z"></path>
    <path class="st0" d="M296.9,112.4c0.3-0.3,0.5-0.7,0.5-1.2V79.5c0-0.4-0.2-0.8-0.5-1.2c-0.7-0.6-1.7-0.6-2.3,0
        c-0.3,0.3-0.5,0.7-0.5,1.1v31.7c0,0.4,0.2,0.8,0.5,1.1c0.3,0.3,0.7,0.5,1.1,0.5C296.2,112.9,296.6,112.7,296.9,112.4z"></path>
    <path class="st0" d="M333.2,103c0-2.8-1.3-5.1-3.9-6.8c-2.1-1.4-5.1-2.5-8.9-3.2l0,0c-6.2-1.2-9.4-3.3-9.5-6.3
        c0-1.6,0.8-3.1,2.5-4.3c1.8-1.3,4.1-2,6.7-2c1.1,0,2.3,0.2,3.4,0.6c1.2,0.4,2.1,0.8,2.8,1.2c0.7,0.4,1.7,1,2.8,1.7
        c0.3,0.2,0.6,0.3,0.9,0.3c0.3,0,0.8-0.1,1.2-0.7c0.5-0.8,0.4-1.6-0.4-2.1c-1.2-0.8-2.3-1.4-3-1.9c-0.8-0.4-1.9-0.9-3.4-1.4
        c-1.5-0.5-2.9-0.7-4.3-0.7c-3.3,0-6.2,0.9-8.6,2.6c-2.4,1.8-3.7,4-3.7,6.7c0,4.7,4,7.8,12,9.2l0,0c6.8,1.3,10.3,3.6,10.3,7
        c0,1.8-0.9,3.4-2.7,4.7c-1.9,1.4-4.4,2.1-7.2,2.1l-0.1,0c-3.6,0-7.3-1.4-10.8-4.3c-0.3-0.3-0.7-0.4-1.1-0.3c-0.4,0-0.7,0.2-1,0.6
        c-0.6,0.7-0.5,1.5,0.2,2.1c4.1,3.3,8.5,5,12.8,5h0c3.5,0,6.5-0.9,9.1-2.8C331.9,108.2,333.2,105.8,333.2,103z"></path>
    <path class="st0" d="M341.5,78.4c-0.3,0.3-0.5,0.7-0.5,1.1v31.7c0,0.4,0.2,0.8,0.4,1.1c0.3,0.3,0.6,0.4,1.1,0.5h17.6
        c0.4,0,0.8-0.2,1.1-0.5c0.3-0.3,0.5-0.7,0.5-1.2c0-0.5-0.2-0.9-0.5-1.2c-0.3-0.3-0.7-0.5-1.1-0.5h-15.8V97.1h13.8
        c0.4,0,0.8-0.2,1.1-0.5c0.3-0.3,0.5-0.7,0.5-1.1c0-0.4-0.2-0.8-0.5-1.2c-0.3-0.3-0.7-0.5-1.2-0.5h-13.8V81.2h15.8
        c0.4,0,0.8-0.2,1.1-0.5c0.3-0.3,0.5-0.7,0.5-1.2c0-0.5-0.2-0.9-0.5-1.2c-0.3-0.3-0.7-0.5-1.1-0.5h-17.5
        C342.2,77.9,341.8,78.1,341.5,78.4z"></path>
    <path class="st1" d="M104.2,136.1h-6.4c-0.4,0-0.8,0.2-1.1,0.5c-0.3,0.3-0.5,0.7-0.5,1.1v31.7c0,0.4,0.2,0.8,0.4,1.1
        c0.3,0.3,0.6,0.4,1.1,0.5h6.5c4.8,0,9-1.7,12.3-5.1c3.4-3.4,5.1-7.5,5.1-12.3c0-4.8-1.7-9-5.1-12.4
        C113.1,137.8,109,136.1,104.2,136.1z M104.2,167.8h-4.7v-28.4h4.7c3.9,0,7.3,1.4,10,4.2c2.8,2.8,4.1,6.1,4.1,10
        c0,3.9-1.4,7.3-4.1,10C111.5,166.4,108.1,167.8,104.2,167.8z"></path>
    <path class="st1" d="M150.3,139.4c0.4,0,0.8-0.2,1.1-0.5c0.3-0.3,0.5-0.7,0.5-1.2c0-0.5-0.2-0.9-0.5-1.2c-0.3-0.3-0.7-0.5-1.1-0.5
        h-17.5c-0.4,0-0.8,0.2-1.1,0.5c-0.3,0.3-0.5,0.7-0.5,1.1v31.7c0,0.4,0.2,0.8,0.4,1.1c0.3,0.3,0.6,0.4,1.1,0.5h17.6
        c0.4,0,0.8-0.2,1.1-0.5c0.3-0.3,0.5-0.7,0.5-1.2c0-0.5-0.2-0.9-0.5-1.2c-0.3-0.3-0.7-0.5-1.1-0.5h-15.8v-12.5h13.8
        c0.4,0,0.8-0.2,1.1-0.5c0.3-0.3,0.5-0.7,0.5-1.1c0-0.4-0.2-0.8-0.5-1.2c-0.3-0.3-0.7-0.5-1.2-0.5h-13.8v-12.6H150.3z"></path>
    <path class="st1" d="M180.7,154.4c-2.1-1.4-5.1-2.5-8.9-3.2l0,0c-6.2-1.2-9.4-3.3-9.5-6.3c0-1.6,0.8-3.1,2.5-4.3
        c1.8-1.3,4.1-2,6.7-2c1.1,0,2.3,0.2,3.4,0.6c1.2,0.4,2.1,0.8,2.8,1.2c0.7,0.4,1.7,1,2.8,1.7c0.3,0.2,0.6,0.3,0.9,0.3
        c0.3,0,0.8-0.1,1.2-0.7c0.5-0.8,0.4-1.6-0.4-2.1c-1.2-0.8-2.3-1.4-3-1.9c-0.8-0.4-1.9-0.9-3.4-1.4c-1.5-0.5-2.9-0.7-4.3-0.7
        c-3.3,0-6.2,0.9-8.6,2.6c-2.4,1.8-3.7,4-3.7,6.7c0,4.7,4,7.8,12,9.2l0,0c6.8,1.3,10.3,3.6,10.3,7c0,1.8-0.9,3.4-2.7,4.7
        c-1.9,1.4-4.4,2.1-7.2,2.1l-0.1,0c-3.6,0-7.3-1.4-10.8-4.3c-0.3-0.3-0.7-0.4-1.1-0.3c-0.4,0-0.7,0.2-1,0.6
        c-0.6,0.7-0.5,1.5,0.2,2.1c4.1,3.3,8.5,5,12.8,5h0c3.5,0,6.5-0.9,9.1-2.8c2.6-1.9,4-4.3,4-7.1
        C184.6,158.4,183.3,156.1,180.7,154.4z"></path>
    <path class="st1" d="M228.8,136.1H206c-0.4,0-0.8,0.2-1.1,0.5c-0.3,0.3-0.5,0.7-0.5,1.1c0,0.4,0.2,0.8,0.5,1.2
        c0.3,0.3,0.7,0.5,1.2,0.5h9.8v30c0,0.4,0.2,0.8,0.5,1.1c0.3,0.3,0.7,0.5,1.1,0.5c0.4,0,0.8-0.2,1.1-0.5c0.3-0.3,0.5-0.7,0.5-1.1
        v-30h9.8c0.4,0,0.8-0.2,1.2-0.5c0.3-0.3,0.5-0.7,0.5-1.2c0-0.4-0.2-0.8-0.5-1.1C229.7,136.3,229.3,136.1,228.8,136.1z"></path>
    <path class="st1" d="M250,125.3c-0.6,0-1.2,0.4-1.7,1.1l-3,4.5c-0.2,0.3-0.3,0.5-0.3,0.8c0,0.3,0.1,0.9,1.2,0.9
        c0.6,0,1.2-0.3,1.7-0.8l3.9-3.8c0.4-0.4,0.7-0.8,0.7-1.2c0-0.6-0.7-1-0.9-1.1C251.1,125.4,250.5,125.3,250,125.3z"></path>
    <path class="st1" d="M257.6,139.4c0.4,0,0.8-0.2,1.1-0.5c0.3-0.3,0.5-0.7,0.5-1.2c0-0.5-0.2-0.9-0.5-1.2c-0.3-0.3-0.7-0.5-1.1-0.5
        h-17.5c-0.4,0-0.8,0.2-1.1,0.5c-0.3,0.3-0.5,0.7-0.5,1.1v31.7c0,0.4,0.2,0.8,0.4,1.1c0.3,0.3,0.6,0.4,1.1,0.5h17.6
        c0.4,0,0.8-0.2,1.1-0.5c0.3-0.3,0.5-0.7,0.5-1.2c0-0.5-0.2-0.9-0.5-1.2c-0.3-0.3-0.7-0.5-1.1-0.5h-15.8v-12.5h13.8
        c0.4,0,0.8-0.2,1.1-0.5c0.3-0.3,0.5-0.7,0.5-1.1c0-0.4-0.2-0.8-0.5-1.2c-0.3-0.3-0.7-0.5-1.2-0.5h-13.8v-12.6H257.6z"></path>
    <path class="st1" d="M286.4,167.8h-15.8v-30c0-0.4-0.2-0.8-0.5-1.2c-0.7-0.6-1.7-0.6-2.3,0c-0.3,0.3-0.5,0.7-0.5,1.1v31.7
        c0,0.4,0.2,0.8,0.5,1.1c0.3,0.3,0.7,0.5,1.1,0.5h17.5c0.4,0,0.8-0.2,1.2-0.5c0.3-0.3,0.5-0.7,0.5-1.2c0-0.4-0.2-0.8-0.5-1.2
        C287.3,167.9,286.9,167.8,286.4,167.8z"></path>
    <path class="st1" d="M313.8,139.4c0.4,0,0.8-0.2,1.1-0.5c0.3-0.3,0.5-0.7,0.5-1.2c0-0.5-0.2-0.9-0.5-1.2c-0.3-0.3-0.7-0.5-1.1-0.5
        h-17.5c-0.4,0-0.8,0.2-1.1,0.5c-0.3,0.3-0.5,0.7-0.5,1.1v31.7c0,0.4,0.2,0.8,0.4,1.1c0.3,0.3,0.6,0.4,1.1,0.5h17.6
        c0.4,0,0.8-0.2,1.1-0.5c0.3-0.3,0.5-0.7,0.5-1.2c0-0.5-0.2-0.9-0.5-1.2c-0.3-0.3-0.7-0.5-1.1-0.5H298v-12.5h13.8
        c0.4,0,0.8-0.2,1.1-0.5c0.3-0.3,0.5-0.7,0.5-1.1c0-0.4-0.2-0.8-0.5-1.2c-0.3-0.3-0.7-0.5-1.2-0.5H298v-12.6H313.8z"></path>
    <path class="st1" d="M301.2,131.7c0,0.3,0.1,0.9,1.2,0.9c0.6,0,1.2-0.3,1.7-0.8l3.9-3.8c0.4-0.4,0.7-0.8,0.7-1.2
        c0-0.6-0.7-1-0.9-1.1c-0.5-0.3-1.1-0.4-1.6-0.4c-0.6,0-1.2,0.4-1.7,1.1l-3,4.5C301.3,131.1,301.2,131.4,301.2,131.7z"></path>
    <path class="st1" d="M340.2,138.9c3.4,0,6.5,1.1,9.2,3.2c0.3,0.3,0.7,0.4,1.2,0.3c0.5,0,0.9-0.3,1.1-0.6c0.3-0.3,0.5-0.8,0.4-1.2
        c-0.1-0.4-0.3-0.8-0.6-1.1c-3.3-2.5-7.1-3.8-11.3-3.8c-5,0-9.3,1.8-12.8,5.2c-3.5,3.4-5.3,7.6-5.3,12.5s1.8,9.1,5.3,12.5
        c3.5,3.4,7.8,5.2,12.8,5.2c4.2,0,8-1.3,11.3-3.8c0.4-0.3,0.6-0.7,0.6-1.1c0-0.5-0.1-0.9-0.4-1.2c-0.2-0.4-0.6-0.6-1.1-0.7
        c-0.5-0.1-0.9,0-1.3,0.3c-2.5,2.1-5.7,3.2-9.6,3.2c-3.8,0-7.2-1.4-10.1-4.2c-2.9-2.8-4.3-6.2-4.3-10.2s1.5-7.4,4.3-10.2
        C332.5,140.3,336.1,138.9,340.2,138.9z"></path>
    <path class="st1" d="M376.4,135.6c-4.7,0-8.7,1.7-11.9,5.2c-3.2,3.4-4.9,7.6-4.9,12.5c0,4.9,1.7,9.1,4.9,12.5
        c3.2,3.4,7.3,5.2,11.9,5.2c4.7,0,8.7-1.7,11.9-5.2c3.2-3.4,4.9-7.6,4.9-12.5c0-4.9-1.7-9.1-4.9-12.5
        C385,137.4,381,135.6,376.4,135.6z M376.3,139c3.7,0,6.9,1.4,9.5,4.1c2.6,2.8,4,6.2,4,10.2c0,4-1.4,7.4-4,10.2
        c-2.6,2.8-5.8,4.2-9.5,4.2c-3.7,0-6.9-1.4-9.5-4.2c-2.6-2.8-4-6.2-4-10.3c0-4,1.3-7.5,4-10.2C369.4,140.4,372.6,139,376.3,139z"></path>
    <path class="st1" d="M431.1,136.5c-0.3-0.2-0.8-0.3-1.2-0.2c-0.5,0.1-0.8,0.3-1.1,0.6l-11.7,16.3l-11.7-16.3
        c-0.6-0.8-1.4-1-2.3-0.4l-0.1,0.1c-0.4,0.3-0.7,0.8-0.7,1.3v31.5c0,0.4,0.2,0.8,0.5,1.2c0.7,0.6,1.7,0.6,2.3,0
        c0.3-0.3,0.5-0.7,0.5-1.1v-26.6l10.1,13.9c0.3,0.5,0.8,0.7,1.4,0.7h0.1c0.6,0,1-0.3,1.3-0.7l10.1-14v26.6c0,0.4,0.2,0.8,0.5,1.1
        c0.3,0.3,0.7,0.5,1.1,0.5c0.4,0,0.8-0.2,1.1-0.5c0.3-0.3,0.5-0.7,0.5-1.1v-31.5C431.8,137.5,431.6,137,431.1,136.5L431.1,136.5z"></path>
    <path class="st1" d="M464.1,154.4c-2.1-1.4-5.1-2.5-8.9-3.2l0,0c-6.2-1.2-9.4-3.3-9.5-6.3c0-1.6,0.8-3.1,2.5-4.3
        c1.8-1.3,4.1-2,6.7-2c1.1,0,2.3,0.2,3.4,0.6c1.2,0.4,2.1,0.8,2.8,1.2c0.7,0.4,1.7,1,2.8,1.7c0.3,0.2,0.6,0.3,0.9,0.3
        c0.3,0,0.8-0.1,1.2-0.7c0.5-0.8,0.4-1.6-0.4-2.1c-1.2-0.8-2.3-1.4-3-1.9c-0.8-0.4-1.9-0.9-3.4-1.4c-1.5-0.5-2.9-0.7-4.3-0.7
        c-3.3,0-6.2,0.9-8.6,2.6c-2.4,1.8-3.7,4-3.7,6.7c0,4.7,4,7.8,12,9.2l0,0c6.8,1.3,10.3,3.6,10.3,7c0,1.8-0.9,3.4-2.7,4.7
        c-1.9,1.4-4.4,2.1-7.2,2.1l-0.1,0c-3.6,0-7.3-1.4-10.8-4.3c-0.3-0.3-0.7-0.4-1.1-0.3c-0.4,0-0.7,0.2-1,0.6
        c-0.6,0.7-0.5,1.5,0.2,2.1c4.1,3.3,8.5,5,12.8,5h0c3.5,0,6.5-0.9,9.1-2.8c2.6-1.9,4-4.3,4-7.1C468,158.4,466.7,156.1,464.1,154.4z
        "></path>
</svg>