<svg version="1.1" viewBox="0.0 0.0 600.0 371.0" fill="none" stroke="none" stroke-linecap="square" stroke-miterlimit="10" width="600" height="371" xmlns:xlink="http://www.w3.org/1999/xlink" xmlns="http://www.w3.org/2000/svg"><path fill="#ffffff" d="M0 0L600.0 0L600.0 371.0L0 371.0L0 0Z" fill-rule="nonzero"/><path stroke="#333333" stroke-width="1.0" stroke-linecap="butt" d="M77.5 300.5L581.5 300.5" fill-rule="nonzero"/><path stroke="#cccccc" stroke-width="1.0" stroke-linecap="butt" d="M77.5 240.5L581.5 240.5" fill-rule="nonzero"/><path stroke="#cccccc" stroke-width="1.0" stroke-linecap="butt" d="M77.5 181.5L581.5 181.5" fill-rule="nonzero"/><path stroke="#cccccc" stroke-width="1.0" stroke-linecap="butt" d="M77.5 121.5L581.5 121.5" fill-rule="nonzero"/><path stroke="#cccccc" stroke-width="1.0" stroke-linecap="butt" d="M77.5 61.5L581.5 61.5" fill-rule="nonzero"/><clipPath id="id_0"><path d="M77.55 61.916668L581.45 61.916668L581.45 300.45L77.55 300.45L77.55 61.916668Z" clip-rule="nonzero"/></clipPath><path fill="#46bdc6" fill-opacity="0.3019608" clip-path="url(#id_0)" d="M77.55 75.036L111.14333 84.815865L144.73666 99.3664L178.33 116.779335L211.92334 124.4124L245.51666 142.3024L279.11 148.0272L312.70334 155.8988L346.29666 167.10986L379.89 172.59613L413.48334 179.75214L447.07666 185.47693L480.67 193.11L514.2633 198.8348L547.8567 200.74307L581.45 205.2752L581.45 300.45L547.8567 300.45L514.2633 300.45L480.67 300.45L447.07666 300.45L413.48334 300.45L379.89 300.45L346.29666 300.45L312.70334 300.45L279.11 300.45L245.51666 300.45L211.92334 300.45L178.33 300.45L144.73666 300.45L111.14333 300.45L77.55 300.45Z" fill-rule="nonzero"/><path stroke="#46bdc6" stroke-width="2.0" stroke-linecap="butt" clip-path="url(#id_0)" d="M77.55 75.036L111.14333 84.815865L144.73666 99.3664L178.33 116.779335L211.92334 124.4124L245.51666 142.3024L279.11 148.0272L312.70334 155.8988L346.29666 167.10986L379.89 172.59613L413.48334 179.75214L447.07666 185.47693L480.67 193.11L514.2633 198.8348L547.8567 200.74307L581.45 205.2752" fill-rule="nonzero"/><path fill="#000000" fill-opacity="0.0" clip-path="url(#id_0)" d="M80.55 75.036C80.55 76.692856 79.206856 78.036 77.55 78.036C75.89314 78.036 74.55 76.692856 74.55 75.036C74.55 73.37914 75.89314 72.036 77.55 72.036C79.206856 72.036 80.55 73.37914 80.55 75.036Z" fill-rule="nonzero"/><path fill="#000000" fill-opacity="0.0" clip-path="url(#id_0)" d="M114.14333 84.815865C114.14333 86.47272 112.800186 87.815865 111.14333 87.815865C109.48648 87.815865 108.14333 86.47272 108.14333 84.815865C108.14333 83.15901 109.48648 81.815865 111.14333 81.815865C112.800186 81.815865 114.14333 83.15901 114.14333 84.815865Z" fill-rule="nonzero"/><path fill="#000000" fill-opacity="0.0" clip-path="url(#id_0)" d="M147.73666 99.3664C147.73666 101.023254 146.39352 102.3664 144.73666 102.3664C143.07982 102.3664 141.73666 101.023254 141.73666 99.3664C141.73666 97.70955 143.07982 96.3664 144.73666 96.3664C146.39352 96.3664 147.73666 97.70955 147.73666 99.3664Z" fill-rule="nonzero"/><path fill="#000000" fill-opacity="0.0" clip-path="url(#id_0)" d="M181.33 116.779335C181.33 118.43619 179.98685 119.779335 178.33 119.779335C176.67314 119.779335 175.33 118.43619 175.33 116.779335C175.33 115.12248 176.67314 113.779335 178.33 113.779335C179.98685 113.779335 181.33 115.12248 181.33 116.779335Z" fill-rule="nonzero"/><path fill="#000000" fill-opacity="0.0" clip-path="url(#id_0)" d="M214.92334 124.4124C214.92334 126.06925 213.58018 127.4124 211.92334 127.4124C210.26648 127.4124 208.92334 126.06925 208.92334 124.4124C208.92334 122.75555 210.26648 121.4124 211.92334 121.4124C213.58018 121.4124 214.92334 122.75555 214.92334 124.4124Z" fill-rule="nonzero"/><path fill="#000000" fill-opacity="0.0" clip-path="url(#id_0)" d="M248.51666 142.3024C248.51666 143.95926 247.17352 145.3024 245.51666 145.3024C243.85982 145.3024 242.51666 143.95926 242.51666 142.3024C242.51666 140.64554 243.85982 139.3024 245.51666 139.3024C247.17352 139.3024 248.51666 140.64554 248.51666 142.3024Z" fill-rule="nonzero"/><path fill="#000000" fill-opacity="0.0" clip-path="url(#id_0)" d="M282.11 148.0272C282.11 149.68405 280.76685 151.0272 279.11 151.0272C277.45316 151.0272 276.11 149.68405 276.11 148.0272C276.11 146.37035 277.45316 145.0272 279.11 145.0272C280.76685 145.0272 282.11 146.37035 282.11 148.0272Z" fill-rule="nonzero"/><path fill="#000000" fill-opacity="0.0" clip-path="url(#id_0)" d="M315.70334 155.8988C315.70334 157.55565 314.3602 158.8988 312.70334 158.8988C311.04648 158.8988 309.70334 157.55565 309.70334 155.8988C309.70334 154.24194 311.04648 152.8988 312.70334 152.8988C314.3602 152.8988 315.70334 154.24194 315.70334 155.8988Z" fill-rule="nonzero"/><path fill="#000000" fill-opacity="0.0" clip-path="url(#id_0)" d="M349.29666 167.10986C349.29666 168.76672 347.95352 170.10986 346.29666 170.10986C344.6398 170.10986 343.29666 168.76672 343.29666 167.10986C343.29666 165.45302 344.6398 164.10986 346.29666 164.10986C347.95352 164.10986 349.29666 165.45302 349.29666 167.10986Z" fill-rule="nonzero"/><path fill="#000000" fill-opacity="0.0" clip-path="url(#id_0)" d="M382.89 172.59613C382.89 174.25299 381.54684 175.59613 379.89 175.59613C378.23315 175.59613 376.89 174.25299 376.89 172.59613C376.89 170.93929 378.23315 169.59613 379.89 169.59613C381.54684 169.59613 382.89 170.93929 382.89 172.59613Z" fill-rule="nonzero"/><path fill="#000000" fill-opacity="0.0" clip-path="url(#id_0)" d="M416.48334 179.75214C416.48334 181.40898 415.1402 182.75214 413.48334 182.75214C411.82648 182.75214 410.48334 181.40898 410.48334 179.75214C410.48334 178.09528 411.82648 176.75214 413.48334 176.75214C415.1402 176.75214 416.48334 178.09528 416.48334 179.75214Z" fill-rule="nonzero"/><path fill="#000000" fill-opacity="0.0" clip-path="url(#id_0)" d="M450.07666 185.47693C450.07666 187.13379 448.73352 188.47693 447.07666 188.47693C445.4198 188.47693 444.07666 187.13379 444.07666 185.47693C444.07666 183.82008 445.4198 182.47693 447.07666 182.47693C448.73352 182.47693 450.07666 183.82008 450.07666 185.47693Z" fill-rule="nonzero"/><path fill="#000000" fill-opacity="0.0" clip-path="url(#id_0)" d="M483.67 193.11C483.67 194.76686 482.32684 196.11 480.67 196.11C479.01315 196.11 477.67 194.76686 477.67 193.11C477.67 191.45314 479.01315 190.11 480.67 190.11C482.32684 190.11 483.67 191.45314 483.67 193.11Z" fill-rule="nonzero"/><path fill="#000000" fill-opacity="0.0" clip-path="url(#id_0)" d="M517.2633 198.8348C517.2633 200.49165 515.92017 201.8348 514.2633 201.8348C512.6065 201.8348 511.26334 200.49165 511.26334 198.8348C511.26334 197.17795 512.6065 195.8348 514.2633 195.8348C515.92017 195.8348 517.2633 197.17795 517.2633 198.8348Z" fill-rule="nonzero"/><path fill="#000000" fill-opacity="0.0" clip-path="url(#id_0)" d="M550.8567 200.74307C550.8567 202.39992 549.51355 203.74307 547.8567 203.74307C546.1998 203.74307 544.8567 202.39992 544.8567 200.74307C544.8567 199.08621 546.1998 197.74307 547.8567 197.74307C549.51355 197.74307 550.8567 199.08621 550.8567 200.74307Z" fill-rule="nonzero"/><path fill="#000000" fill-opacity="0.0" clip-path="url(#id_0)" d="M584.45 205.2752C584.45 206.93205 583.1069 208.2752 581.45 208.2752C579.79315 208.2752 578.45 206.93205 578.45 205.2752C578.45 203.61835 579.79315 202.2752 581.45 202.2752C583.1069 202.2752 584.45 203.61835 584.45 205.2752Z" fill-rule="nonzero"/><path fill="#000000" d="M276.60938 349.45L276.60938 341.8719L273.78125 341.8719L273.78125 340.85626L280.59375 340.85626L280.59375 341.8719L277.75 341.8719L277.75 349.45L276.60938 349.45ZM285.54688 347.45L286.64062 347.575Q286.39062 348.52814 285.6875 349.0594Q284.98438 349.59064 283.90625 349.59064Q282.54688 349.59064 281.73438 348.7469Q280.9375 347.90314 280.9375 346.3875Q280.9375 344.825 281.75 343.96564Q282.5625 343.09064 283.84375 343.09064Q285.09375 343.09064 285.875 343.9344Q286.67188 344.77814 286.67188 346.325Q286.67188 346.41876 286.67188 346.60626L282.03125 346.60626Q282.09375 347.6375 282.60938 348.1844Q283.125 348.71564 283.90625 348.71564Q284.48438 348.71564 284.89062 348.41876Q285.3125 348.10626 285.54688 347.45ZM282.09375 345.7469L285.5625 345.7469Q285.5 344.95 285.17188 344.5594Q284.65625 343.95 283.85938 343.95Q283.125 343.95 282.625 344.4344Q282.14062 344.91876 282.09375 345.7469ZM288.29688 349.45L288.29688 343.23126L289.23438 343.23126L289.23438 344.10626Q289.53125 343.6375 290.01562 343.3719Q290.5 343.09064 291.125 343.09064Q291.8125 343.09064 292.25 343.3719Q292.70312 343.65314 292.875 344.16876Q293.625 343.09064 294.79688 343.09064Q295.73438 343.09064 296.21875 343.60626Q296.71875 344.10626 296.71875 345.1844L296.71875 349.45L295.67188 349.45L295.67188 345.52814Q295.67188 344.90314 295.5625 344.6219Q295.46875 344.34064 295.20312 344.16876Q294.9375 343.9969 294.5625 343.9969Q293.90625 343.9969 293.46875 344.4344Q293.04688 344.8719 293.04688 345.84064L293.04688 349.45L291.98438 349.45L291.98438 345.40314Q291.98438 344.7 291.71875 344.35626Q291.46875 343.9969 290.89062 343.9969Q290.4375 343.9969 290.0625 344.23126Q289.6875 344.46564 289.51562 344.91876Q289.34375 345.3719 289.34375 346.21564L289.34375 349.45L288.29688 349.45ZM299.29688 351.84064L299.29688 343.23126L300.25 343.23126L300.25 344.02814Q300.59375 343.5594 301.01562 343.325Q301.45312 343.09064 302.0625 343.09064Q302.85938 343.09064 303.46875 343.4969Q304.07812 343.90314 304.375 344.65314Q304.6875 345.40314 304.6875 346.29376Q304.6875 347.2469 304.34375 348.0125Q304.01562 348.77814 303.35938 349.1844Q302.70312 349.59064 301.98438 349.59064Q301.45312 349.59064 301.03125 349.3719Q300.60938 349.1375 300.34375 348.8094L300.34375 351.84064L299.29688 351.84064ZM300.25 346.3719Q300.25 347.575 300.73438 348.15314Q301.21875 348.71564 301.90625 348.71564Q302.60938 348.71564 303.10938 348.1219Q303.60938 347.52814 303.60938 346.27814Q303.60938 345.09064 303.125 344.5125Q302.64062 343.91876 301.95312 343.91876Q301.28125 343.91876 300.76562 344.54376Q300.25 345.16876 300.25 346.3719ZM305.875 347.59064L306.90625 347.4344Q307.0 348.0594 307.39062 348.3875Q307.79688 348.71564 308.53125 348.71564Q309.25 348.71564 309.59375 348.4344Q309.95312 348.1375 309.95312 347.73126Q309.95312 347.3719 309.64062 347.16876Q309.42188 347.02814 308.5625 346.8094Q307.40625 346.5125 306.95312 346.3094Q306.51562 346.09064 306.28125 345.71564Q306.04688 345.34064 306.04688 344.8719Q306.04688 344.46564 306.23438 344.10626Q306.42188 343.7469 306.75 343.5125Q307.0 343.34064 307.42188 343.21564Q307.84375 343.09064 308.34375 343.09064Q309.0625 343.09064 309.60938 343.3094Q310.17188 343.5125 310.4375 343.8719Q310.70312 344.23126 310.79688 344.825L309.76562 344.96564Q309.70312 344.4969 309.35938 344.23126Q309.03125 343.95 308.40625 343.95Q307.6875 343.95 307.375 344.2Q307.0625 344.4344 307.0625 344.7625Q307.0625 344.96564 307.1875 345.1219Q307.32812 345.29376 307.59375 345.40314Q307.75 345.46564 308.53125 345.66876Q309.65625 345.98126 310.09375 346.16876Q310.53125 346.35626 310.78125 346.71564Q311.03125 347.075 311.03125 347.6219Q311.03125 348.15314 310.71875 348.6219Q310.42188 349.075 309.84375 349.34064Q309.26562 349.59064 308.53125 349.59064Q307.3125 349.59064 306.67188 349.09064Q306.04688 348.575 305.875 347.59064ZM318.3125 351.98126Q317.4375 350.8719 316.82812 349.40314Q316.23438 347.91876 316.23438 346.34064Q316.23438 344.95 316.67188 343.66876Q317.20312 342.1844 318.3125 340.71564L319.0625 340.71564Q318.35938 341.9344 318.125 342.45Q317.76562 343.2625 317.5625 344.1375Q317.3125 345.23126 317.3125 346.34064Q317.3125 349.16876 319.0625 351.98126L318.3125 351.98126ZM324.54688 347.45L325.64062 347.575Q325.39062 348.52814 324.6875 349.0594Q323.98438 349.59064 322.90625 349.59064Q321.54688 349.59064 320.73438 348.7469Q319.9375 347.90314 319.9375 346.3875Q319.9375 344.825 320.75 343.96564Q321.5625 343.09064 322.84375 343.09064Q324.09375 343.09064 324.875 343.9344Q325.67188 344.77814 325.67188 346.325Q325.67188 346.41876 325.67188 346.60626L321.03125 346.60626Q321.09375 347.6375 321.60938 348.1844Q322.125 348.71564 322.90625 348.71564Q323.48438 348.71564 323.89062 348.41876Q324.3125 348.10626 324.54688 347.45ZM321.09375 345.7469L324.5625 345.7469Q324.5 344.95 324.17188 344.5594Q323.65625 343.95 322.85938 343.95Q322.125 343.95 321.625 344.4344Q321.14062 344.91876 321.09375 345.7469ZM327.29688 349.45L327.29688 343.23126L328.23438 343.23126L328.23438 344.10626Q328.92188 343.09064 330.21875 343.09064Q330.78125 343.09064 331.25 343.29376Q331.73438 343.4969 331.96875 343.825Q332.20312 344.15314 332.29688 344.59064Q332.34375 344.8875 332.34375 345.6219L332.34375 349.45L331.29688 349.45L331.29688 345.66876Q331.29688 345.0125 331.17188 344.7Q331.04688 344.3875 330.73438 344.2Q330.42188 343.9969 330.0 343.9969Q329.32812 343.9969 328.82812 344.4344Q328.34375 344.85626 328.34375 346.04376L328.34375 349.45L327.29688 349.45ZM337.29688 349.45L337.29688 343.23126L338.23438 343.23126L338.23438 344.10626Q338.53125 343.6375 339.01562 343.3719Q339.5 343.09064 340.125 343.09064Q340.8125 343.09064 341.25 343.3719Q341.70312 343.65314 341.875 344.16876Q342.625 343.09064 343.79688 343.09064Q344.73438 343.09064 345.21875 343.60626Q345.71875 344.10626 345.71875 345.1844L345.71875 349.45L344.67188 349.45L344.67188 345.52814Q344.67188 344.90314 344.5625 344.6219Q344.46875 344.34064 344.20312 344.16876Q343.9375 343.9969 343.5625 343.9969Q342.90625 343.9969 342.46875 344.4344Q342.04688 344.8719 342.04688 345.84064L342.04688 349.45L340.98438 349.45L340.98438 345.40314Q340.98438 344.7 340.71875 344.35626Q340.46875 343.9969 339.89062 343.9969Q339.4375 343.9969 339.0625 344.23126Q338.6875 344.46564 338.51562 344.91876Q338.34375 345.3719 338.34375 346.21564L338.34375 349.45L337.29688 349.45ZM348.29688 342.075L348.29688 340.85626L349.35938 340.85626L349.35938 342.075L348.29688 342.075ZM348.29688 349.45L348.29688 343.23126L349.35938 343.23126L349.35938 349.45L348.29688 349.45ZM351.29688 349.45L351.29688 343.23126L352.23438 343.23126L352.23438 344.10626Q352.92188 343.09064 354.21875 343.09064Q354.78125 343.09064 355.25 343.29376Q355.73438 343.4969 355.96875 343.825Q356.20312 344.15314 356.29688 344.59064Q356.34375 344.8875 356.34375 345.6219L356.34375 349.45L355.29688 349.45L355.29688 345.66876Q355.29688 345.0125 355.17188 344.7Q355.04688 344.3875 354.73438 344.2Q354.42188 343.9969 354.0 343.9969Q353.32812 343.9969 352.82812 344.4344Q352.34375 344.85626 352.34375 346.04376L352.34375 349.45L351.29688 349.45ZM362.375 349.45L362.375 348.52814Q361.64062 349.59064 360.39062 349.59064Q359.84375 349.59064 359.35938 349.3875Q358.89062 349.16876 358.65625 348.85626Q358.42188 348.52814 358.32812 348.0594Q358.26562 347.7625 358.26562 347.075L358.26562 343.23126L359.32812 343.23126L359.32812 346.6844Q359.32812 347.4969 359.39062 347.79376Q359.48438 348.2 359.79688 348.45Q360.125 348.6844 360.60938 348.6844Q361.07812 348.6844 361.48438 348.45Q361.90625 348.2 362.07812 347.77814Q362.26562 347.35626 362.26562 346.5594L362.26562 343.23126L363.3125 343.23126L363.3125 349.45L362.375 349.45ZM367.59375 348.5125L367.75 349.4344Q367.29688 349.52814 366.95312 349.52814Q366.375 349.52814 366.0625 349.35626Q365.75 349.16876 365.60938 348.8719Q365.48438 348.575 365.48438 347.6219L365.48438 344.04376L364.71875 344.04376L364.71875 343.23126L365.48438 343.23126L365.48438 341.6844L366.53125 341.0594L366.53125 343.23126L367.59375 343.23126L367.59375 344.04376L366.53125 344.04376L366.53125 347.6844Q366.53125 348.1375 366.57812 348.2625Q366.64062 348.3875 366.76562 348.46564Q366.89062 348.54376 367.125 348.54376Q367.3125 348.54376 367.59375 348.5125ZM372.54688 347.45L373.64062 347.575Q373.39062 348.52814 372.6875 349.0594Q371.98438 349.59064 370.90625 349.59064Q369.54688 349.59064 368.73438 348.7469Q367.9375 347.90314 367.9375 346.3875Q367.9375 344.825 368.75 343.96564Q369.5625 343.09064 370.84375 343.09064Q372.09375 343.09064 372.875 343.9344Q373.67188 344.77814 373.67188 346.325Q373.67188 346.41876 373.67188 346.60626L369.03125 346.60626Q369.09375 347.6375 369.60938 348.1844Q370.125 348.71564 370.90625 348.71564Q371.48438 348.71564 371.89062 348.41876Q372.3125 348.10626 372.54688 347.45ZM369.09375 345.7469L372.5625 345.7469Q372.5 344.95 372.17188 344.5594Q371.65625 343.95 370.85938 343.95Q370.125 343.95 369.625 344.4344Q369.14062 344.91876 369.09375 345.7469ZM374.875 347.59064L375.90625 347.4344Q376.0 348.0594 376.39062 348.3875Q376.79688 348.71564 377.53125 348.71564Q378.25 348.71564 378.59375 348.4344Q378.95312 348.1375 378.95312 347.73126Q378.95312 347.3719 378.64062 347.16876Q378.42188 347.02814 377.5625 346.8094Q376.40625 346.5125 375.95312 346.3094Q375.51562 346.09064 375.28125 345.71564Q375.04688 345.34064 375.04688 344.8719Q375.04688 344.46564 375.23438 344.10626Q375.42188 343.7469 375.75 343.5125Q376.0 343.34064 376.42188 343.21564Q376.84375 343.09064 377.34375 343.09064Q378.0625 343.09064 378.60938 343.3094Q379.17188 343.5125 379.4375 343.8719Q379.70312 344.23126 379.79688 344.825L378.76562 344.96564Q378.70312 344.4969 378.35938 344.23126Q378.03125 343.95 377.40625 343.95Q376.6875 343.95 376.375 344.2Q376.0625 344.4344 376.0625 344.7625Q376.0625 344.96564 376.1875 345.1219Q376.32812 345.29376 376.59375 345.40314Q376.75 345.46564 377.53125 345.66876Q378.65625 345.98126 379.09375 346.16876Q379.53125 346.35626 379.78125 346.71564Q380.03125 347.075 380.03125 347.6219Q380.03125 348.15314 379.71875 348.6219Q379.42188 349.075 378.84375 349.34064Q378.26562 349.59064 377.53125 349.59064Q376.3125 349.59064 375.67188 349.09064Q375.04688 348.575 374.875 347.59064ZM382.98438 351.98126L382.23438 351.98126Q383.98438 349.16876 383.98438 346.34064Q383.98438 345.2469 383.73438 344.15314Q383.53125 343.27814 383.17188 342.46564Q382.9375 341.95 382.23438 340.71564L382.98438 340.71564Q384.07812 342.1844 384.60938 343.66876Q385.0625 344.95 385.0625 346.34064Q385.0625 347.91876 384.45312 349.40314Q383.84375 350.8719 382.98438 351.98126Z" fill-rule="nonzero"/><path fill="#000000" d="M29.550013 241.07396L21.971888 241.07396L21.971888 243.90208L20.956263 243.90208L20.956263 237.08958L21.971888 237.08958L21.971888 239.93333L29.550013 239.93333L29.550013 241.07396ZM27.550013 232.13646L27.675013 231.04271Q28.628138 231.29271 29.159388 231.99583Q29.690638 232.69896 29.690638 233.77708Q29.690638 235.13646 28.846888 235.94896Q28.003138 236.74583 26.487513 236.74583Q24.925013 236.74583 24.065638 235.93333Q23.190638 235.12083 23.190638 233.83958Q23.190638 232.58958 24.034388 231.80833Q24.878138 231.01146 26.425013 231.01146Q26.518763 231.01146 26.706263 231.01146L26.706263 235.65208Q27.737513 235.58958 28.284388 235.07396Q28.815638 234.55833 28.815638 233.77708Q28.815638 233.19896 28.518763 232.79271Q28.206263 232.37083 27.550013 232.13646ZM25.846888 235.58958L25.846888 232.12083Q25.050013 232.18333 24.659388 232.51146Q24.050013 233.02708 24.050013 233.82396Q24.050013 234.55833 24.534388 235.05833Q25.018763 235.54271 25.846888 235.58958ZM29.550013 229.38646L23.331263 229.38646L23.331263 228.44896L24.206263 228.44896Q23.737513 228.15208 23.471888 227.66771Q23.190638 227.18333 23.190638 226.55833Q23.190638 225.87083 23.471888 225.43333Q23.753138 224.98021 24.268763 224.80833Q23.190638 224.05833 23.190638 222.88646Q23.190638 221.94896 23.706263 221.46458Q24.206263 220.96458 25.284388 220.96458L29.550013 220.96458L29.550013 222.01146L25.628138 222.01146Q25.003138 222.01146 24.721888 222.12083Q24.440638 222.21458 24.268763 222.48021Q24.096888 222.74583 24.096888 223.12083Q24.096888 223.77708 24.534388 224.21458Q24.971888 224.63646 25.940638 224.63646L29.550013 224.63646L29.550013 225.69896L25.503138 225.69896Q24.800013 225.69896 24.456263 225.96458Q24.096888 226.21458 24.096888 226.79271Q24.096888 227.24583 24.331263 227.62083Q24.565638 227.99583 25.018763 228.16771Q25.471888 228.33958 26.315638 228.33958L29.550013 228.33958L29.550013 229.38646ZM31.940638 218.38646L23.331263 218.38646L23.331263 217.43333L24.128138 217.43333Q23.659388 217.08958 23.425013 216.66771Q23.190638 216.23021 23.190638 215.62083Q23.190638 214.82396 23.596888 214.21458Q24.003138 213.60521 24.753138 213.30833Q25.503138 212.99583 26.393763 212.99583Q27.346888 212.99583 28.112513 213.33958Q28.878138 213.66771 29.284388 214.32396Q29.690638 214.98021 29.690638 215.69896Q29.690638 216.23021 29.471888 216.65208Q29.237513 217.07396 28.909388 217.33958L31.940638 217.33958L31.940638 218.38646ZM26.471888 217.43333Q27.675013 217.43333 28.253138 216.94896Q28.815638 216.46458 28.815638 215.77708Q28.815638 215.07396 28.221888 214.57396Q27.628138 214.07396 26.378138 214.07396Q25.190638 214.07396 24.612513 214.55833Q24.018763 215.04271 24.018763 215.73021Q24.018763 216.40208 24.643763 216.91771Q25.268763 217.43333 26.471888 217.43333ZM27.550013 207.13646L27.675013 206.04271Q28.628138 206.29271 29.159388 206.99583Q29.690638 207.69896 29.690638 208.77708Q29.690638 210.13646 28.846888 210.94896Q28.003138 211.74583 26.487513 211.74583Q24.925013 211.74583 24.065638 210.93333Q23.190638 210.12083 23.190638 208.83958Q23.190638 207.58958 24.034388 206.80833Q24.878138 206.01146 26.425013 206.01146Q26.518763 206.01146 26.706263 206.01146L26.706263 210.65208Q27.737513 210.58958 28.284388 210.07396Q28.815638 209.55833 28.815638 208.77708Q28.815638 208.19896 28.518763 207.79271Q28.206263 207.37083 27.550013 207.13646ZM25.846888 210.58958L25.846888 207.12083Q25.050013 207.18333 24.659388 207.51146Q24.050013 208.02708 24.050013 208.82396Q24.050013 209.55833 24.534388 210.05833Q25.018763 210.54271 25.846888 210.58958ZM22.550013 209.46458L20.909388 208.68333L20.909388 207.29271L22.550013 208.58958L22.550013 209.46458ZM29.550013 204.40208L23.331263 204.40208L23.331263 203.44896L24.268763 203.44896Q23.612513 203.08958 23.409388 202.79271Q23.190638 202.48021 23.190638 202.10521Q23.190638 201.57396 23.518763 201.02708L24.503138 201.38646Q24.268763 201.77708 24.268763 202.15208Q24.268763 202.51146 24.487513 202.79271Q24.690638 203.05833 25.065638 203.16771Q25.628138 203.35521 26.284388 203.35521L29.550013 203.35521L29.550013 204.40208ZM28.784388 196.32396Q29.284388 196.91771 29.487513 197.46458Q29.690638 197.99583 29.690638 198.62083Q29.690638 199.65208 29.190638 200.19896Q28.690638 200.74583 27.909388 200.74583Q27.456263 200.74583 27.081263 200.54271Q26.690638 200.33958 26.471888 199.99583Q26.237513 199.65208 26.128138 199.23021Q26.034388 198.93333 25.956263 198.29271Q25.815638 197.02708 25.596888 196.41771Q25.378138 196.41771 25.331263 196.41771Q24.675013 196.41771 24.409388 196.71458Q24.065638 197.12083 24.065638 197.91771Q24.065638 198.65208 24.331263 199.01146Q24.581263 199.37083 25.237513 199.54271L25.096888 200.57396Q24.440638 200.43333 24.034388 200.10521Q23.628138 199.77708 23.409388 199.16771Q23.190638 198.55833 23.190638 197.76146Q23.190638 196.96458 23.378138 196.46458Q23.565638 195.96458 23.846888 195.73021Q24.128138 195.49583 24.565638 195.40208Q24.831263 195.35521 25.534388 195.35521L26.940638 195.35521Q28.409388 195.35521 28.800013 195.29271Q29.190638 195.21458 29.550013 195.01146L29.550013 196.12083Q29.221888 196.27708 28.784388 196.32396ZM26.425013 196.41771Q26.659388 196.99583 26.831263 198.13646Q26.925013 198.79271 27.050013 199.05833Q27.159388 199.32396 27.378138 199.48021Q27.596888 199.62083 27.878138 199.62083Q28.300013 199.62083 28.581263 199.30833Q28.862513 198.98021 28.862513 198.37083Q28.862513 197.76146 28.596888 197.29271Q28.331263 196.80833 27.862513 196.58958Q27.503138 196.41771 26.815638 196.41771L26.425013 196.41771ZM28.612513 191.08958L29.534388 190.93333Q29.628138 191.38646 29.628138 191.73021Q29.628138 192.30833 29.456263 192.62083Q29.268763 192.93333 28.971888 193.07396Q28.675013 193.19896 27.721888 193.19896L24.143763 193.19896L24.143763 193.96458L23.331263 193.96458L23.331263 193.19896L21.784388 193.19896L21.159388 192.15208L23.331263 192.15208L23.331263 191.08958L24.143763 191.08958L24.143763 192.15208L27.784388 192.15208Q28.237513 192.15208 28.362513 192.10521Q28.487513 192.04271 28.565638 191.91771Q28.643763 191.79271 28.643763 191.55833Q28.643763 191.37083 28.612513 191.08958ZM29.550013 186.30833L28.628138 186.30833Q29.690638 187.04271 29.690638 188.29271Q29.690638 188.83958 29.487513 189.32396Q29.268763 189.79271 28.956263 190.02708Q28.628138 190.26146 28.159388 190.35521Q27.862513 190.41771 27.175013 190.41771L23.331263 190.41771L23.331263 189.35521L26.784388 189.35521Q27.596888 189.35521 27.893763 189.29271Q28.300013 189.19896 28.550013 188.88646Q28.784388 188.55833 28.784388 188.07396Q28.784388 187.60521 28.550013 187.19896Q28.300013 186.77708 27.878138 186.60521Q27.456263 186.41771 26.659388 186.41771L23.331263 186.41771L23.331263 185.37083L29.550013 185.37083L29.550013 186.30833ZM29.550013 183.40208L23.331263 183.40208L23.331263 182.44896L24.268763 182.44896Q23.612513 182.08958 23.409388 181.79271Q23.190638 181.48021 23.190638 181.10521Q23.190638 180.57396 23.518763 180.02708L24.503138 180.38646Q24.268763 180.77708 24.268763 181.15208Q24.268763 181.51146 24.487513 181.79271Q24.690638 182.05833 25.065638 182.16771Q25.628138 182.35521 26.284388 182.35521L29.550013 182.35521L29.550013 183.40208ZM27.550013 175.13646L27.675013 174.04271Q28.628138 174.29271 29.159388 174.99583Q29.690638 175.69896 29.690638 176.77708Q29.690638 178.13646 28.846888 178.94896Q28.003138 179.74583 26.487513 179.74583Q24.925013 179.74583 24.065638 178.93333Q23.190638 178.12083 23.190638 176.83958Q23.190638 175.58958 24.034388 174.80833Q24.878138 174.01146 26.425013 174.01146Q26.518763 174.01146 26.706263 174.01146L26.706263 178.65208Q27.737513 178.58958 28.284388 178.07396Q28.815638 177.55833 28.815638 176.77708Q28.815638 176.19896 28.518763 175.79271Q28.206263 175.37083 27.550013 175.13646ZM25.846888 178.58958L25.846888 175.12083Q25.050013 175.18333 24.659388 175.51146Q24.050013 176.02708 24.050013 176.82396Q24.050013 177.55833 24.534388 178.05833Q25.018763 178.54271 25.846888 178.58958ZM32.08126 167.37083Q30.971888 168.24583 29.503138 168.85521Q28.018763 169.44896 26.440638 169.44896Q25.050013 169.44896 23.768763 169.01146Q22.284388 168.48021 20.815638 167.37083L20.815638 166.62083Q22.034388 167.32396 22.550013 167.55833Q23.362513 167.91771 24.237513 168.12083Q25.331263 168.37083 26.440638 168.37083Q29.268763 168.37083 32.08126 166.62083L32.08126 167.37083ZM27.550013 161.13646L27.675013 160.04271Q28.628138 160.29271 29.159388 160.99583Q29.690638 161.69896 29.690638 162.77708Q29.690638 164.13646 28.846888 164.94896Q28.003138 165.74583 26.487513 165.74583Q24.925013 165.74583 24.065638 164.93333Q23.190638 164.12083 23.190638 162.83958Q23.190638 161.58958 24.034388 160.80833Q24.878138 160.01146 26.425013 160.01146Q26.518763 160.01146 26.706263 160.01146L26.706263 164.65208Q27.737513 164.58958 28.284388 164.07396Q28.815638 163.55833 28.815638 162.77708Q28.815638 162.19896 28.518763 161.79271Q28.206263 161.37083 27.550013 161.13646ZM25.846888 164.58958L25.846888 161.12083Q25.050013 161.18333 24.659388 161.51146Q24.050013 162.02708 24.050013 162.82396Q24.050013 163.55833 24.534388 164.05833Q25.018763 164.54271 25.846888 164.58958ZM29.550013 158.38646L23.331263 158.38646L23.331263 157.44896L24.206263 157.44896Q23.190638 156.76146 23.190638 155.46458Q23.190638 154.90208 23.393763 154.43333Q23.596888 153.94896 23.925013 153.71458Q24.253138 153.48021 24.690638 153.38646Q24.987513 153.33958 25.721888 153.33958L29.550013 153.33958L29.550013 154.38646L25.768763 154.38646Q25.112513 154.38646 24.800013 154.51146Q24.487513 154.63646 24.300013 154.94896Q24.096888 155.26146 24.096888 155.68333Q24.096888 156.35521 24.534388 156.85521Q24.956263 157.33958 26.143763 157.33958L29.550013 157.33958L29.550013 158.38646ZM22.440638 148.43333Q21.768763 148.43333 21.300013 147.96458Q20.815638 147.48021 20.815638 146.80833Q20.815638 146.13646 21.300013 145.66771Q21.768763 145.18333 22.440638 145.18333Q23.112513 145.18333 23.596888 145.66771Q24.065638 146.13646 24.065638 146.80833Q24.065638 147.48021 23.596888 147.96458Q23.112513 148.43333 22.440638 148.43333ZM22.440638 147.79271Q22.846888 147.79271 23.143763 147.51146Q23.425013 147.21458 23.425013 146.80833Q23.425013 146.40208 23.143763 146.12083Q22.846888 145.82396 22.440638 145.82396Q22.018763 145.82396 21.737513 146.12083Q21.440638 146.40208 21.440638 146.80833Q21.440638 147.21458 21.737513 147.51146Q22.018763 147.79271 22.440638 147.79271ZM26.534388 137.12083L26.831263 135.99583Q28.221888 136.35521 28.956263 137.27708Q29.690638 138.19896 29.690638 139.54271Q29.690638 140.93333 29.128138 141.80833Q28.565638 142.68333 27.503138 143.13646Q26.425013 143.58958 25.190638 143.58958Q23.846888 143.58958 22.846888 143.07396Q21.846888 142.55833 21.331263 141.62083Q20.815638 140.66771 20.815638 139.52708Q20.815638 138.24583 21.471888 137.37083Q22.128138 136.48021 23.315638 136.13646L23.581263 137.26146Q22.643763 137.55833 22.221888 138.13646Q21.784388 138.69896 21.784388 139.55833Q21.784388 140.54271 22.268763 141.21458Q22.737513 141.87083 23.534388 142.15208Q24.331263 142.41771 25.190638 142.41771Q26.284388 142.41771 27.096888 142.10521Q27.909388 141.77708 28.315638 141.10521Q28.721888 140.43333 28.721888 139.63646Q28.721888 138.68333 28.175013 138.02708Q27.628138 137.35521 26.534388 137.12083ZM32.08126 133.69896L32.08126 134.44896Q29.268763 132.69896 26.440638 132.69896Q25.346888 132.69896 24.253138 132.94896Q23.378138 133.15208 22.565638 133.51146Q22.050013 133.74583 20.815638 134.44896L20.815638 133.69896Q22.284388 132.60521 23.768763 132.07396Q25.050013 131.62083 26.440638 131.62083Q28.018763 131.62083 29.503138 132.23021Q30.971888 132.83958 32.08126 133.69896Z" fill-rule="nonzero"/><path fill="#000000" d="M65.05 300.21564Q65.05 298.6844 65.3625 297.7625Q65.675 296.825 66.28438 296.325Q66.90938 295.825 67.84688 295.825Q68.53438 295.825 69.05 296.10626Q69.58125 296.3875 69.925 296.91876Q70.26875 297.4344 70.45625 298.1844Q70.64375 298.9344 70.64375 300.21564Q70.64375 301.73126 70.33125 302.65314Q70.03438 303.575 69.40938 304.09064Q68.8 304.59064 67.84688 304.59064Q66.6125 304.59064 65.89375 303.7Q65.05 302.6375 65.05 300.21564ZM66.12813 300.21564Q66.12813 302.325 66.62813 303.02814Q67.12813 303.73126 67.84688 303.73126Q68.58125 303.73126 69.06563 303.02814Q69.56563 302.325 69.56563 300.21564Q69.56563 298.09064 69.06563 297.40314Q68.58125 296.7 67.83125 296.7Q67.1125 296.7 66.675 297.3094Q66.12813 298.09064 66.12813 300.21564Z" fill-rule="nonzero"/><path fill="#000000" d="M63.596874 243.80104L63.596874 244.81667L57.909374 244.81667Q57.909374 244.44167 58.034374 244.08229Q58.253124 243.50417 58.721874 242.94167Q59.20625 242.37917 60.1125 241.64479Q61.51875 240.48854 62.003124 239.81667Q62.503124 239.14479 62.503124 238.55104Q62.503124 237.92604 62.05 237.50417Q61.596874 237.06667 60.878124 237.06667Q60.1125 237.06667 59.659374 237.51979Q59.20625 237.97292 59.190624 238.78542L58.1125 238.67604Q58.221874 237.45729 58.940624 236.83229Q59.675 236.19167 60.909374 236.19167Q62.14375 236.19167 62.8625 236.87917Q63.58125 237.56667 63.58125 238.58229Q63.58125 239.09792 63.3625 239.59792Q63.159374 240.08229 62.659374 240.64479Q62.175 241.19167 61.05 242.14479Q60.096874 242.94167 59.815624 243.23854Q59.55 243.51979 59.378124 243.80104L63.596874 243.80104ZM65.05 242.56667L66.15938 242.47292Q66.28438 243.28542 66.72188 243.69167Q67.175 244.09792 67.81563 244.09792Q68.56563 244.09792 69.09688 243.51979Q69.62813 242.94167 69.62813 242.00417Q69.62813 241.09792 69.1125 240.58229Q68.6125 240.05104 67.78438 240.05104Q67.28438 240.05104 66.8625 240.28542Q66.45625 240.51979 66.22188 240.87917L65.2375 240.75417L66.06563 236.34792L70.34688 236.34792L70.34688 237.34792L66.90938 237.34792L66.45625 239.66042Q67.22188 239.11354 68.06563 239.11354Q69.19063 239.11354 69.95625 239.89479Q70.7375 240.67604 70.7375 241.91042Q70.7375 243.06667 70.06563 243.92604Q69.2375 244.95729 67.81563 244.95729Q66.64375 244.95729 65.89375 244.30104Q65.15938 243.64479 65.05 242.56667Z" fill-rule="nonzero"/><path fill="#000000" d="M58.05 182.93333L59.159374 182.83958Q59.284374 183.65208 59.721874 184.05833Q60.175 184.46458 60.815624 184.46458Q61.565624 184.46458 62.096874 183.88646Q62.628124 183.30833 62.628124 182.37083Q62.628124 181.46458 62.1125 180.94896Q61.6125 180.41771 60.784374 180.41771Q60.284374 180.41771 59.8625 180.65208Q59.45625 180.88646 59.221874 181.24583L58.2375 181.12083L59.065624 176.71458L63.346874 176.71458L63.346874 177.71458L59.909374 177.71458L59.45625 180.02708Q60.221874 179.48021 61.065624 179.48021Q62.190624 179.48021 62.95625 180.26146Q63.7375 181.04271 63.7375 182.27708Q63.7375 183.43333 63.065624 184.29271Q62.2375 185.32396 60.815624 185.32396Q59.64375 185.32396 58.89375 184.66771Q58.159374 184.01146 58.05 182.93333ZM65.05 180.94896Q65.05 179.41771 65.3625 178.49583Q65.675 177.55833 66.28438 177.05833Q66.90938 176.55833 67.84688 176.55833Q68.53438 176.55833 69.05 176.83958Q69.58125 177.12083 69.925 177.65208Q70.26875 178.16771 70.45625 178.91771Q70.64375 179.66771 70.64375 180.94896Q70.64375 182.46458 70.33125 183.38646Q70.03438 184.30833 69.40938 184.82396Q68.8 185.32396 67.84688 185.32396Q66.6125 185.32396 65.89375 184.43333Q65.05 183.37083 65.05 180.94896ZM66.12813 180.94896Q66.12813 183.05833 66.62813 183.76146Q67.12813 184.46458 67.84688 184.46458Q68.58125 184.46458 69.06563 183.76146Q69.56563 183.05833 69.56563 180.94896Q69.56563 178.82396 69.06563 178.13646Q68.58125 177.43333 67.83125 177.43333Q67.1125 177.43333 66.675 178.04271Q66.12813 178.82396 66.12813 180.94896Z" fill-rule="nonzero"/><path fill="#000000" d="M58.1125 118.08125L58.1125 117.06563L63.675 117.06563L63.675 117.89375Q62.8625 118.76875 62.05 120.22188Q61.253124 121.65938 60.815624 123.19063Q60.4875 124.26875 60.409374 125.55L59.315624 125.55Q59.33125 124.53438 59.70625 123.09688Q60.096874 121.65938 60.8 120.33125Q61.51875 119.00313 62.33125 118.08125L58.1125 118.08125ZM65.05 123.3L66.15938 123.20625Q66.28438 124.01875 66.72188 124.425Q67.175 124.83125 67.81563 124.83125Q68.56563 124.83125 69.09688 124.25313Q69.62813 123.675 69.62813 122.7375Q69.62813 121.83125 69.1125 121.31563Q68.6125 120.78438 67.78438 120.78438Q67.28438 120.78438 66.8625 121.01875Q66.45625 121.25313 66.22188 121.6125L65.2375 121.4875L66.06563 117.08125L70.34688 117.08125L70.34688 118.08125L66.90938 118.08125L66.45625 120.39375Q67.22188 119.84688 68.06563 119.84688Q69.19063 119.84688 69.95625 120.62813Q70.7375 121.40938 70.7375 122.64375Q70.7375 123.8 70.06563 124.65938Q69.2375 125.69063 67.81563 125.69063Q66.64375 125.69063 65.89375 125.03438Q65.15938 124.37813 65.05 123.3Z" fill-rule="nonzero"/><path fill="#000000" d="M55.01875 65.916664L53.971874 65.916664L53.971874 59.197914Q53.58125 59.55729 52.95625 59.93229Q52.346874 60.291664 51.8625 60.46354L51.8625 59.447914Q52.7375 59.02604 53.39375 58.447914Q54.065624 57.854164 54.346874 57.291664L55.01875 57.291664L55.01875 65.916664ZM58.05 61.68229Q58.05 60.15104 58.3625 59.229164Q58.675 58.291664 59.284374 57.791664Q59.909374 57.291664 60.846874 57.291664Q61.534374 57.291664 62.05 57.572914Q62.58125 57.854164 62.925 58.385414Q63.26875 58.90104 63.45625 59.65104Q63.64375 60.40104 63.64375 61.68229Q63.64375 63.197914 63.33125 64.11979Q63.034374 65.041664 62.409374 65.55729Q61.8 66.05729 60.846874 66.05729Q59.6125 66.05729 58.89375 65.166664Q58.05 64.104164 58.05 61.68229ZM59.128124 61.68229Q59.128124 63.791664 59.628124 64.49479Q60.128124 65.197914 60.846874 65.197914Q61.58125 65.197914 62.065624 64.49479Q62.565624 63.791664 62.565624 61.68229Q62.565624 59.55729 62.065624 58.86979Q61.58125 58.166664 60.83125 58.166664Q60.1125 58.166664 59.675 58.77604Q59.128124 59.55729 59.128124 61.68229ZM65.05 61.68229Q65.05 60.15104 65.3625 59.229164Q65.675 58.291664 66.28438 57.791664Q66.90938 57.291664 67.84688 57.291664Q68.53438 57.291664 69.05 57.572914Q69.58125 57.854164 69.925 58.385414Q70.26875 58.90104 70.45625 59.65104Q70.64375 60.40104 70.64375 61.68229Q70.64375 63.197914 70.33125 64.11979Q70.03438 65.041664 69.40938 65.55729Q68.8 66.05729 67.84688 66.05729Q66.6125 66.05729 65.89375 65.166664Q65.05 64.104164 65.05 61.68229ZM66.12813 61.68229Q66.12813 63.791664 66.62813 64.49479Q67.12813 65.197914 67.84688 65.197914Q68.58125 65.197914 69.06563 64.49479Q69.56563 63.791664 69.56563 61.68229Q69.56563 59.55729 69.06563 58.86979Q68.58125 58.166664 67.83125 58.166664Q67.1125 58.166664 66.675 58.77604Q66.12813 59.55729 66.12813 61.68229Z" fill-rule="nonzero"/><path fill="#000000" d="M74.55 313.21564Q74.55 311.6844 74.8625 310.7625Q75.175 309.825 75.78438 309.325Q76.40938 308.825 77.34688 308.825Q78.03438 308.825 78.55 309.10626Q79.08125 309.3875 79.425 309.91876Q79.76875 310.4344 79.95625 311.1844Q80.14375 311.9344 80.14375 313.21564Q80.14375 314.73126 79.83125 315.65314Q79.53438 316.575 78.90938 317.09064Q78.3 317.59064 77.34688 317.59064Q76.1125 317.59064 75.39375 316.7Q74.55 315.6375 74.55 313.21564ZM75.62813 313.21564Q75.62813 315.325 76.12813 316.02814Q76.62813 316.73126 77.34688 316.73126Q78.08125 316.73126 78.56563 316.02814Q79.06563 315.325 79.06563 313.21564Q79.06563 311.09064 78.56563 310.40314Q78.08125 309.7 77.33125 309.7Q76.6125 309.7 76.175 310.3094Q75.62813 311.09064 75.62813 313.21564Z" fill-rule="nonzero"/><path fill="#000000" d="M103.14333 313.21564Q103.14333 311.6844 103.45583 310.7625Q103.76833 309.825 104.37771 309.325Q105.00271 308.825 105.94021 308.825Q106.62771 308.825 107.14333 309.10626Q107.67458 309.3875 108.01833 309.91876Q108.36208 310.4344 108.54958 311.1844Q108.73708 311.9344 108.73708 313.21564Q108.73708 314.73126 108.42458 315.65314Q108.12771 316.575 107.50271 317.09064Q106.89333 317.59064 105.94021 317.59064Q104.70583 317.59064 103.98708 316.7Q103.14333 315.6375 103.14333 313.21564ZM104.22146 313.21564Q104.22146 315.325 104.72146 316.02814Q105.22146 316.73126 105.94021 316.73126Q106.67458 316.73126 107.15896 316.02814Q107.65896 315.325 107.65896 313.21564Q107.65896 311.09064 107.15896 310.40314Q106.67458 309.7 105.92458 309.7Q105.20583 309.7 104.76833 310.3094Q104.22146 311.09064 104.22146 313.21564ZM110.70583 317.45L110.70583 316.2469L111.90896 316.2469L111.90896 317.45Q111.90896 318.10626 111.67458 318.5125Q111.44021 318.9344 110.94021 319.15314L110.64333 318.7Q110.97146 318.5594 111.12771 318.2625Q111.28396 317.98126 111.31521 317.45L110.70583 317.45ZM113.14333 315.2L114.25271 315.10626Q114.37771 315.91876 114.81521 316.325Q115.26833 316.73126 115.90896 316.73126Q116.65896 316.73126 117.19021 316.15314Q117.72146 315.575 117.72146 314.6375Q117.72146 313.73126 117.20583 313.21564Q116.70583 312.6844 115.87771 312.6844Q115.37771 312.6844 114.95583 312.91876Q114.54958 313.15314 114.31521 313.5125L113.33083 313.3875L114.15896 308.98126L118.44021 308.98126L118.44021 309.98126L115.00271 309.98126L114.54958 312.29376Q115.31521 311.7469 116.15896 311.7469Q117.28396 311.7469 118.04958 312.52814Q118.83083 313.3094 118.83083 314.54376Q118.83083 315.7 118.15896 316.5594Q117.33083 317.59064 115.90896 317.59064Q114.73708 317.59064 113.98708 316.9344Q113.25271 316.27814 113.14333 315.2Z" fill-rule="nonzero"/><path fill="#000000" d="M145.70541 317.45L144.65854 317.45L144.65854 310.73126Q144.26791 311.09064 143.64291 311.46564Q143.03354 311.825 142.54916 311.9969L142.54916 310.98126Q143.42416 310.5594 144.08041 309.98126Q144.75229 309.3875 145.03354 308.825L145.70541 308.825L145.70541 317.45Z" fill-rule="nonzero"/><path fill="#000000" d="M174.29875 317.45L173.25188 317.45L173.25188 310.73126Q172.86125 311.09064 172.23625 311.46564Q171.62688 311.825 171.1425 311.9969L171.1425 310.98126Q172.0175 310.5594 172.67375 309.98126Q173.34563 309.3875 173.62688 308.825L174.29875 308.825L174.29875 317.45ZM177.8925 317.45L177.8925 316.2469L179.09563 316.2469L179.09563 317.45Q179.09563 318.10626 178.86125 318.5125Q178.62688 318.9344 178.12688 319.15314L177.83 318.7Q178.15813 318.5594 178.31438 318.2625Q178.47063 317.98126 178.50188 317.45L177.8925 317.45ZM180.33 315.2L181.43938 315.10626Q181.56438 315.91876 182.00188 316.325Q182.455 316.73126 183.09563 316.73126Q183.84563 316.73126 184.37688 316.15314Q184.90813 315.575 184.90813 314.6375Q184.90813 313.73126 184.3925 313.21564Q183.8925 312.6844 183.06438 312.6844Q182.56438 312.6844 182.1425 312.91876Q181.73625 313.15314 181.50188 313.5125L180.5175 313.3875L181.34563 308.98126L185.62688 308.98126L185.62688 309.98126L182.18938 309.98126L181.73625 312.29376Q182.50188 311.7469 183.34563 311.7469Q184.47063 311.7469 185.23625 312.52814Q186.0175 313.3094 186.0175 314.54376Q186.0175 315.7 185.34563 316.5594Q184.5175 317.59064 183.09563 317.59064Q181.92375 317.59064 181.17375 316.9344Q180.43938 316.27814 180.33 315.2Z" fill-rule="nonzero"/><path fill="#000000" d="M214.47021 316.4344L214.47021 317.45L208.78271 317.45Q208.78271 317.075 208.90771 316.71564Q209.12646 316.1375 209.59521 315.575Q210.07959 315.0125 210.98584 314.27814Q212.39209 313.1219 212.87646 312.45Q213.37646 311.77814 213.37646 311.1844Q213.37646 310.5594 212.92334 310.1375Q212.47021 309.7 211.75146 309.7Q210.98584 309.7 210.53271 310.15314Q210.07959 310.60626 210.06396 311.41876L208.98584 311.3094Q209.09521 310.09064 209.81396 309.46564Q210.54834 308.825 211.78271 308.825Q213.01709 308.825 213.73584 309.5125Q214.45459 310.2 214.45459 311.21564Q214.45459 311.73126 214.23584 312.23126Q214.03271 312.71564 213.53271 313.27814Q213.04834 313.825 211.92334 314.77814Q210.97021 315.575 210.68896 315.8719Q210.42334 316.15314 210.25146 316.4344L214.47021 316.4344Z" fill-rule="nonzero"/><path fill="#000000" d="M243.06354 316.4344L243.06354 317.45L237.37604 317.45Q237.37604 317.075 237.50104 316.71564Q237.71979 316.1375 238.18854 315.575Q238.67291 315.0125 239.57916 314.27814Q240.98541 313.1219 241.46979 312.45Q241.96979 311.77814 241.96979 311.1844Q241.96979 310.5594 241.51666 310.1375Q241.06354 309.7 240.34479 309.7Q239.57916 309.7 239.12604 310.15314Q238.67291 310.60626 238.65729 311.41876L237.57916 311.3094Q237.68854 310.09064 238.40729 309.46564Q239.14166 308.825 240.37604 308.825Q241.61041 308.825 242.32916 309.5125Q243.04791 310.2 243.04791 311.21564Q243.04791 311.73126 242.82916 312.23126Q242.62604 312.71564 242.12604 313.27814Q241.64166 313.825 240.51666 314.77814Q239.56354 315.575 239.28229 315.8719Q239.01666 316.15314 238.84479 316.4344L243.06354 316.4344ZM245.07916 317.45L245.07916 316.2469L246.28229 316.2469L246.28229 317.45Q246.28229 318.10626 246.04791 318.5125Q245.81354 318.9344 245.31354 319.15314L245.01666 318.7Q245.34479 318.5594 245.50104 318.2625Q245.65729 317.98126 245.68854 317.45L245.07916 317.45ZM247.51666 315.2L248.62604 315.10626Q248.75104 315.91876 249.18854 316.325Q249.64166 316.73126 250.28229 316.73126Q251.03229 316.73126 251.56354 316.15314Q252.09479 315.575 252.09479 314.6375Q252.09479 313.73126 251.57916 313.21564Q251.07916 312.6844 250.25104 312.6844Q249.75104 312.6844 249.32916 312.91876Q248.92291 313.15314 248.68854 313.5125L247.70416 313.3875L248.53229 308.98126L252.81354 308.98126L252.81354 309.98126L249.37604 309.98126L248.92291 312.29376Q249.68854 311.7469 250.53229 311.7469Q251.65729 311.7469 252.42291 312.52814Q253.20416 313.3094 253.20416 314.54376Q253.20416 315.7 252.53229 316.5594Q251.70416 317.59064 250.28229 317.59064Q249.11041 317.59064 248.36041 316.9344Q247.62604 316.27814 247.51666 315.2Z" fill-rule="nonzero"/><path fill="#000000" d="M276.11 315.1844L277.1725 315.04376Q277.34436 315.9344 277.78186 316.34064Q278.21936 316.73126 278.84436 316.73126Q279.59436 316.73126 280.11 316.21564Q280.6256 315.7 280.6256 314.9344Q280.6256 314.21564 280.14124 313.7469Q279.6725 313.2625 278.9381 313.2625Q278.64124 313.2625 278.1881 313.3875L278.3131 312.45Q278.4225 312.46564 278.485 312.46564Q279.15686 312.46564 279.6881 312.1219Q280.235 311.7625 280.235 311.02814Q280.235 310.45 279.84436 310.075Q279.45374 309.6844 278.82874 309.6844Q278.21936 309.6844 277.7975 310.075Q277.39124 310.46564 277.28186 311.23126L276.21936 311.04376Q276.40686 309.9969 277.09436 309.41876Q277.78186 308.825 278.7975 308.825Q279.5006 308.825 280.09436 309.1375Q280.6881 309.4344 281.0006 309.95Q281.3131 310.46564 281.3131 311.0594Q281.3131 311.60626 281.01624 312.075Q280.71936 312.52814 280.14124 312.79376Q280.89124 312.96564 281.3131 313.52814Q281.735 314.075 281.735 314.91876Q281.735 316.04376 280.90686 316.825Q280.09436 317.60626 278.84436 317.60626Q277.71936 317.60626 276.96936 316.9344Q276.21936 316.2469 276.11 315.1844Z" fill-rule="nonzero"/><path fill="#000000" d="M304.70334 315.1844L305.76584 315.04376Q305.9377 315.9344 306.3752 316.34064Q306.8127 316.73126 307.4377 316.73126Q308.1877 316.73126 308.70334 316.21564Q309.21896 315.7 309.21896 314.9344Q309.21896 314.21564 308.7346 313.7469Q308.26584 313.2625 307.53146 313.2625Q307.2346 313.2625 306.78146 313.3875L306.90646 312.45Q307.01584 312.46564 307.07834 312.46564Q307.7502 312.46564 308.28146 312.1219Q308.82834 311.7625 308.82834 311.02814Q308.82834 310.45 308.4377 310.075Q308.0471 309.6844 307.4221 309.6844Q306.8127 309.6844 306.39084 310.075Q305.9846 310.46564 305.8752 311.23126L304.8127 311.04376Q305.0002 309.9969 305.6877 309.41876Q306.3752 308.825 307.39084 308.825Q308.09396 308.825 308.6877 309.1375Q309.28146 309.4344 309.59396 309.95Q309.90646 310.46564 309.90646 311.0594Q309.90646 311.60626 309.6096 312.075Q309.3127 312.52814 308.7346 312.79376Q309.4846 312.96564 309.90646 313.52814Q310.32834 314.075 310.32834 314.91876Q310.32834 316.04376 309.5002 316.825Q308.6877 317.60626 307.4377 317.60626Q306.3127 317.60626 305.5627 316.9344Q304.8127 316.2469 304.70334 315.1844ZM312.26584 317.45L312.26584 316.2469L313.46896 316.2469L313.46896 317.45Q313.46896 318.10626 313.2346 318.5125Q313.0002 318.9344 312.5002 319.15314L312.20334 318.7Q312.53146 318.5594 312.6877 318.2625Q312.84396 317.98126 312.8752 317.45L312.26584 317.45ZM314.70334 315.2L315.8127 315.10626Q315.9377 315.91876 316.3752 316.325Q316.82834 316.73126 317.46896 316.73126Q318.21896 316.73126 318.7502 316.15314Q319.28146 315.575 319.28146 314.6375Q319.28146 313.73126 318.76584 313.21564Q318.26584 312.6844 317.4377 312.6844Q316.9377 312.6844 316.51584 312.91876Q316.1096 313.15314 315.8752 313.5125L314.89084 313.3875L315.71896 308.98126L320.0002 308.98126L320.0002 309.98126L316.5627 309.98126L316.1096 312.29376Q316.8752 311.7469 317.71896 311.7469Q318.84396 311.7469 319.6096 312.52814Q320.39084 313.3094 320.39084 314.54376Q320.39084 315.7 319.71896 316.5594Q318.89084 317.59064 317.46896 317.59064Q316.2971 317.59064 315.5471 316.9344Q314.8127 316.27814 314.70334 315.2Z" fill-rule="nonzero"/><path fill="#000000" d="M346.67166 317.45L346.67166 315.3875L342.9529 315.3875L342.9529 314.41876L346.8748 308.85626L347.73416 308.85626L347.73416 314.41876L348.8904 314.41876L348.8904 315.3875L347.73416 315.3875L347.73416 317.45L346.67166 317.45ZM346.67166 314.41876L346.67166 310.5594L343.98416 314.41876L346.67166 314.41876Z" fill-rule="nonzero"/><path fill="#000000" d="M375.265 317.45L375.265 315.3875L371.54626 315.3875L371.54626 314.41876L375.46814 308.85626L376.3275 308.85626L376.3275 314.41876L377.48376 314.41876L377.48376 315.3875L376.3275 315.3875L376.3275 317.45L375.265 317.45ZM375.265 314.41876L375.265 310.5594L372.5775 314.41876L375.265 314.41876ZM379.4525 317.45L379.4525 316.2469L380.65564 316.2469L380.65564 317.45Q380.65564 318.10626 380.42126 318.5125Q380.1869 318.9344 379.6869 319.15314L379.39 318.7Q379.71814 318.5594 379.8744 318.2625Q380.03064 317.98126 380.0619 317.45L379.4525 317.45ZM381.89 315.2L382.9994 315.10626Q383.1244 315.91876 383.5619 316.325Q384.015 316.73126 384.65564 316.73126Q385.40564 316.73126 385.9369 316.15314Q386.46814 315.575 386.46814 314.6375Q386.46814 313.73126 385.9525 313.21564Q385.4525 312.6844 384.6244 312.6844Q384.1244 312.6844 383.7025 312.91876Q383.29626 313.15314 383.0619 313.5125L382.0775 313.3875L382.90564 308.98126L387.1869 308.98126L387.1869 309.98126L383.7494 309.98126L383.29626 312.29376Q384.0619 311.7469 384.90564 311.7469Q386.03064 311.7469 386.79626 312.52814Q387.5775 313.3094 387.5775 314.54376Q387.5775 315.7 386.90564 316.5594Q386.0775 317.59064 384.65564 317.59064Q383.48376 317.59064 382.73376 316.9344Q381.9994 316.27814 381.89 315.2Z" fill-rule="nonzero"/><path fill="#000000" d="M410.48334 315.2L411.5927 315.10626Q411.7177 315.91876 412.1552 316.325Q412.60834 316.73126 413.24896 316.73126Q413.99896 316.73126 414.5302 316.15314Q415.06146 315.575 415.06146 314.6375Q415.06146 313.73126 414.54584 313.21564Q414.04584 312.6844 413.2177 312.6844Q412.7177 312.6844 412.29584 312.91876Q411.8896 313.15314 411.6552 313.5125L410.67084 313.3875L411.49896 308.98126L415.7802 308.98126L415.7802 309.98126L412.3427 309.98126L411.8896 312.29376Q412.6552 311.7469 413.49896 311.7469Q414.62396 311.7469 415.3896 312.52814Q416.17084 313.3094 416.17084 314.54376Q416.17084 315.7 415.49896 316.5594Q414.67084 317.59064 413.24896 317.59064Q412.0771 317.59064 411.3271 316.9344Q410.5927 316.27814 410.48334 315.2Z" fill-rule="nonzero"/><path fill="#000000" d="M439.07666 315.2L440.18604 315.10626Q440.31104 315.91876 440.74854 316.325Q441.20166 316.73126 441.8423 316.73126Q442.5923 316.73126 443.12354 316.15314Q443.6548 315.575 443.6548 314.6375Q443.6548 313.73126 443.13916 313.21564Q442.63916 312.6844 441.81104 312.6844Q441.31104 312.6844 440.88916 312.91876Q440.4829 313.15314 440.24854 313.5125L439.26416 313.3875L440.0923 308.98126L444.37354 308.98126L444.37354 309.98126L440.93604 309.98126L440.4829 312.29376Q441.24854 311.7469 442.0923 311.7469Q443.2173 311.7469 443.9829 312.52814Q444.76416 313.3094 444.76416 314.54376Q444.76416 315.7 444.0923 316.5594Q443.26416 317.59064 441.8423 317.59064Q440.6704 317.59064 439.9204 316.9344Q439.18604 316.27814 439.07666 315.2ZM446.63916 317.45L446.63916 316.2469L447.8423 316.2469L447.8423 317.45Q447.8423 318.10626 447.6079 318.5125Q447.37354 318.9344 446.87354 319.15314L446.57666 318.7Q446.9048 318.5594 447.06104 318.2625Q447.2173 317.98126 447.24854 317.45L446.63916 317.45ZM449.07666 315.2L450.18604 315.10626Q450.31104 315.91876 450.74854 316.325Q451.20166 316.73126 451.8423 316.73126Q452.5923 316.73126 453.12354 316.15314Q453.6548 315.575 453.6548 314.6375Q453.6548 313.73126 453.13916 313.21564Q452.63916 312.6844 451.81104 312.6844Q451.31104 312.6844 450.88916 312.91876Q450.4829 313.15314 450.24854 313.5125L449.26416 313.3875L450.0923 308.98126L454.37354 308.98126L454.37354 309.98126L450.93604 309.98126L450.4829 312.29376Q451.24854 311.7469 452.0923 311.7469Q453.2173 311.7469 453.9829 312.52814Q454.76416 313.3094 454.76416 314.54376Q454.76416 315.7 454.0923 316.5594Q453.26416 317.59064 451.8423 317.59064Q450.6704 317.59064 449.9204 316.9344Q449.18604 316.27814 449.07666 315.2Z" fill-rule="nonzero"/><path fill="#000000" d="M483.13876 310.96564L482.0919 311.04376Q481.95126 310.41876 481.70126 310.1375Q481.26376 309.6844 480.63876 309.6844Q480.13876 309.6844 479.74814 309.96564Q479.26376 310.34064 478.9669 311.04376Q478.68564 311.73126 478.67 313.0125Q479.045 312.4344 479.5919 312.15314Q480.1544 311.8719 480.76376 311.8719Q481.81064 311.8719 482.545 312.65314Q483.295 313.4344 483.295 314.65314Q483.295 315.46564 482.93564 316.16876Q482.5919 316.85626 481.9825 317.23126Q481.37314 317.59064 480.6075 317.59064Q479.2794 317.59064 478.45126 316.6219Q477.62314 315.65314 477.62314 313.4344Q477.62314 310.9344 478.545 309.8094Q479.3419 308.825 480.70126 308.825Q481.7169 308.825 482.3575 309.40314Q483.01376 309.96564 483.13876 310.96564ZM478.8419 314.66876Q478.8419 315.21564 479.06064 315.71564Q479.295 316.2 479.70126 316.46564Q480.12314 316.73126 480.5919 316.73126Q481.24814 316.73126 481.7325 316.2Q482.2169 315.65314 482.2169 314.73126Q482.2169 313.84064 481.7325 313.325Q481.26376 312.8094 480.545 312.8094Q479.82626 312.8094 479.32626 313.325Q478.8419 313.84064 478.8419 314.66876Z" fill-rule="nonzero"/><path fill="#000000" d="M511.7321 310.96564L510.6852 311.04376Q510.5446 310.41876 510.2946 310.1375Q509.8571 309.6844 509.2321 309.6844Q508.7321 309.6844 508.34146 309.96564Q507.8571 310.34064 507.5602 311.04376Q507.27896 311.73126 507.26334 313.0125Q507.63834 312.4344 508.1852 312.15314Q508.7477 311.8719 509.3571 311.8719Q510.40396 311.8719 511.13834 312.65314Q511.88834 313.4344 511.88834 314.65314Q511.88834 315.46564 511.52896 316.16876Q511.1852 316.85626 510.57584 317.23126Q509.96646 317.59064 509.20084 317.59064Q507.8727 317.59064 507.0446 316.6219Q506.21646 315.65314 506.21646 313.4344Q506.21646 310.9344 507.13834 309.8094Q507.9352 308.825 509.2946 308.825Q510.3102 308.825 510.95084 309.40314Q511.6071 309.96564 511.7321 310.96564ZM507.4352 314.66876Q507.4352 315.21564 507.65396 315.71564Q507.88834 316.2 508.2946 316.46564Q508.71646 316.73126 509.1852 316.73126Q509.84146 316.73126 510.32584 316.2Q510.8102 315.65314 510.8102 314.73126Q510.8102 313.84064 510.32584 313.325Q509.8571 312.8094 509.13834 312.8094Q508.4196 312.8094 507.9196 313.325Q507.4352 313.84064 507.4352 314.66876ZM513.8258 317.45L513.8258 316.2469L515.02893 316.2469L515.02893 317.45Q515.02893 318.10626 514.79456 318.5125Q514.5602 318.9344 514.0602 319.15314L513.7633 318.7Q514.09143 318.5594 514.2477 318.2625Q514.40393 317.98126 514.4352 317.45L513.8258 317.45ZM516.2633 315.2L517.3727 315.10626Q517.4977 315.91876 517.9352 316.325Q518.3883 316.73126 519.02893 316.73126Q519.77893 316.73126 520.3102 316.15314Q520.84143 315.575 520.84143 314.6375Q520.84143 313.73126 520.3258 313.21564Q519.8258 312.6844 518.9977 312.6844Q518.4977 312.6844 518.0758 312.91876Q517.66956 313.15314 517.4352 313.5125L516.4508 313.3875L517.27893 308.98126L521.5602 308.98126L521.5602 309.98126L518.1227 309.98126L517.66956 312.29376Q518.4352 311.7469 519.27893 311.7469Q520.40393 311.7469 521.16956 312.52814Q521.9508 313.3094 521.9508 314.54376Q521.9508 315.7 521.27893 316.5594Q520.4508 317.59064 519.02893 317.59064Q517.85706 317.59064 517.10706 316.9344Q516.3727 316.27814 516.2633 315.2Z" fill-rule="nonzero"/><path fill="#000000" d="M544.9192 309.98126L544.9192 308.96564L550.4817 308.96564L550.4817 309.79376Q549.6692 310.66876 548.8567 312.1219Q548.0598 313.5594 547.6223 315.09064Q547.2942 316.16876 547.21606 317.45L546.1223 317.45Q546.13794 316.4344 546.51294 314.9969Q546.90356 313.5594 547.6067 312.23126Q548.32544 310.90314 549.13794 309.98126L544.9192 309.98126Z" fill-rule="nonzero"/><path fill="#000000" d="M573.5125 309.98126L573.5125 308.96564L579.075 308.96564L579.075 309.79376Q578.2625 310.66876 577.45 312.1219Q576.65314 313.5594 576.21564 315.09064Q575.8875 316.16876 575.8094 317.45L574.71564 317.45Q574.73126 316.4344 575.10626 314.9969Q575.4969 313.5594 576.2 312.23126Q576.91876 310.90314 577.73126 309.98126L573.5125 309.98126ZM581.0125 317.45L581.0125 316.2469L582.21564 316.2469L582.21564 317.45Q582.21564 318.10626 581.98126 318.5125Q581.7469 318.9344 581.2469 319.15314L580.95 318.7Q581.27814 318.5594 581.4344 318.2625Q581.59064 317.98126 581.6219 317.45L581.0125 317.45ZM583.45 315.2L584.5594 315.10626Q584.6844 315.91876 585.1219 316.325Q585.575 316.73126 586.21564 316.73126Q586.96564 316.73126 587.4969 316.15314Q588.02814 315.575 588.02814 314.6375Q588.02814 313.73126 587.5125 313.21564Q587.0125 312.6844 586.1844 312.6844Q585.6844 312.6844 585.2625 312.91876Q584.85626 313.15314 584.6219 313.5125L583.6375 313.3875L584.46564 308.98126L588.7469 308.98126L588.7469 309.98126L585.3094 309.98126L584.85626 312.29376Q585.6219 311.7469 586.46564 311.7469Q587.59064 311.7469 588.35626 312.52814Q589.1375 313.3094 589.1375 314.54376Q589.1375 315.7 588.46564 316.5594Q587.6375 317.59064 586.21564 317.59064Q585.04376 317.59064 584.29376 316.9344Q583.5594 316.27814 583.45 315.2Z" fill-rule="nonzero"/><path fill="#757575" d="M23.7375 37.55L23.7375 24.925L19.01875 24.925L19.01875 23.2375L30.3625 23.2375L30.3625 24.925L25.628124 24.925L25.628124 37.55L23.7375 37.55ZM38.971874 34.20625L40.784374 34.440624Q40.3625 36.01875 39.190624 36.909374Q38.034374 37.784374 36.221874 37.784374Q33.95625 37.784374 32.6125 36.39375Q31.284374 34.9875 31.284374 32.45625Q31.284374 29.83125 32.628124 28.39375Q33.971874 26.940624 36.128124 26.940624Q38.20625 26.940624 39.51875 28.3625Q40.846874 29.76875 40.846874 32.346874Q40.846874 32.503124 40.83125 32.815624L33.096874 32.815624Q33.190624 34.51875 34.065624 35.425Q34.940624 36.33125 36.2375 36.33125Q37.20625 36.33125 37.878124 35.83125Q38.565624 35.315624 38.971874 34.20625ZM33.190624 31.3625L38.9875 31.3625Q38.878124 30.065624 38.33125 29.409374Q37.4875 28.39375 36.14375 28.39375Q34.940624 28.39375 34.1125 29.20625Q33.284374 30.003124 33.190624 31.3625ZM42.8625 37.55L42.8625 27.175L44.440624 27.175L44.440624 28.628124Q44.925 27.878124 45.7375 27.409374Q46.55 26.940624 47.58125 26.940624Q48.7375 26.940624 49.471874 27.425Q50.20625 27.89375 50.51875 28.753124Q51.753124 26.940624 53.721874 26.940624Q55.26875 26.940624 56.096874 27.8Q56.925 28.659374 56.925 30.425L56.925 37.55L55.175 37.55L55.175 31.01875Q55.175 29.95625 55.003124 29.503124Q54.83125 29.034374 54.378124 28.753124Q53.940624 28.471874 53.33125 28.471874Q52.2375 28.471874 51.503124 29.20625Q50.784374 29.925 50.784374 31.51875L50.784374 37.55L49.034374 37.55L49.034374 30.815624Q49.034374 29.64375 48.596874 29.065624Q48.175 28.471874 47.190624 28.471874Q46.45625 28.471874 45.815624 28.8625Q45.190624 29.253124 44.909374 30.003124Q44.628124 30.753124 44.628124 32.175L44.628124 37.55L42.8625 37.55ZM58.8625 41.51875L58.8625 27.175L60.471874 27.175L60.471874 28.51875Q61.034374 27.7375 61.7375 27.346874Q62.45625 26.940624 63.471874 26.940624Q64.8 26.940624 65.81563 27.628124Q66.83125 28.315624 67.34688 29.565624Q67.87813 30.8 67.87813 32.284374Q67.87813 33.878124 67.3 35.159374Q66.7375 36.425 65.64375 37.1125Q64.55 37.784374 63.346874 37.784374Q62.471874 37.784374 61.76875 37.409374Q61.08125 37.034374 60.628124 36.471874L60.628124 41.51875L58.8625 41.51875ZM60.45625 32.425Q60.45625 34.425 61.26875 35.378124Q62.08125 36.33125 63.2375 36.33125Q64.40938 36.33125 65.2375 35.346874Q66.08125 34.3625 66.08125 32.26875Q66.08125 30.3 65.25313 29.315624Q64.44063 28.315624 63.315624 28.315624Q62.190624 28.315624 61.315624 29.378124Q60.45625 30.425 60.45625 32.425ZM76.97188 34.20625L78.78438 34.440624Q78.3625 36.01875 77.19063 36.909374Q76.03438 37.784374 74.22188 37.784374Q71.95625 37.784374 70.6125 36.39375Q69.28438 34.9875 69.28438 32.45625Q69.28438 29.83125 70.62813 28.39375Q71.97188 26.940624 74.12813 26.940624Q76.20625 26.940624 77.51875 28.3625Q78.84688 29.76875 78.84688 32.346874Q78.84688 32.503124 78.83125 32.815624L71.09688 32.815624Q71.19063 34.51875 72.06563 35.425Q72.94063 36.33125 74.2375 36.33125Q75.20625 36.33125 75.87813 35.83125Q76.56563 35.315624 76.97188 34.20625ZM71.19063 31.3625L76.9875 31.3625Q76.87813 30.065624 76.33125 29.409374Q75.4875 28.39375 74.14375 28.39375Q72.94063 28.39375 72.1125 29.20625Q71.28438 30.003124 71.19063 31.3625ZM73.09688 25.89375L74.39375 23.159374L76.69063 23.159374L74.55 25.89375L73.09688 25.89375ZM80.84688 37.55L80.84688 27.175L82.425 27.175L82.425 28.753124Q83.03438 27.64375 83.55 27.3Q84.06563 26.940624 84.675 26.940624Q85.56563 26.940624 86.4875 27.503124L85.87813 29.14375Q85.2375 28.753124 84.59688 28.753124Q84.01875 28.753124 83.55 29.1125Q83.09688 29.45625 82.89375 30.065624Q82.6125 31.003124 82.6125 32.1125L82.6125 37.55L80.84688 37.55ZM94.64375 36.26875Q93.65938 37.096874 92.75313 37.440624Q91.84688 37.784374 90.81563 37.784374Q89.1125 37.784374 88.19063 36.95625Q87.26875 36.1125 87.26875 34.815624Q87.26875 34.05 87.6125 33.425Q87.97188 32.8 88.53438 32.425Q89.09688 32.034374 89.8 31.83125Q90.31563 31.70625 91.3625 31.565624Q93.4875 31.315624 94.4875 30.971874Q94.50313 30.6125 94.50313 30.503124Q94.50313 29.440624 94.00313 28.9875Q93.33125 28.39375 92.00313 28.39375Q90.75313 28.39375 90.15938 28.83125Q89.58125 29.26875 89.3 30.378124L87.58125 30.14375Q87.81563 29.034374 88.34688 28.3625Q88.87813 27.675 89.89375 27.315624Q90.90938 26.940624 92.25313 26.940624Q93.58125 26.940624 94.40938 27.253124Q95.2375 27.565624 95.62813 28.05Q96.01875 28.51875 96.175 29.2375Q96.26875 29.690624 96.26875 30.8625L96.26875 33.20625Q96.26875 35.659374 96.37813 36.315624Q96.4875 36.95625 96.83125 37.55L94.9875 37.55Q94.72188 37.003124 94.64375 36.26875ZM94.4875 32.346874Q93.53438 32.7375 91.6125 33.003124Q90.53438 33.159374 90.08125 33.3625Q89.64375 33.55 89.39375 33.925Q89.14375 34.3 89.14375 34.76875Q89.14375 35.471874 89.675 35.940624Q90.20625 36.409374 91.2375 36.409374Q92.25313 36.409374 93.03438 35.971874Q93.83125 35.51875 94.20625 34.753124Q94.4875 34.14375 94.4875 32.9875L94.4875 32.346874ZM102.70625 35.971874L102.95625 37.534374Q102.22188 37.690624 101.62813 37.690624Q100.675 37.690624 100.14375 37.39375Q99.62813 37.08125 99.40938 36.596874Q99.19063 36.096874 99.19063 34.51875L99.19063 28.55L97.90938 28.55L97.90938 27.175L99.19063 27.175L99.19063 24.6125L100.94063 23.55L100.94063 27.175L102.70625 27.175L102.70625 28.55L100.94063 28.55L100.94063 34.6125Q100.94063 35.3625 101.03438 35.58125Q101.12813 35.784374 101.33125 35.925Q101.55 36.05 101.94063 36.05Q102.22188 36.05 102.70625 35.971874ZM111.65938 37.55L111.65938 36.01875Q110.45625 37.784374 108.37813 37.784374Q107.45625 37.784374 106.65938 37.440624Q105.8625 37.08125 105.47188 36.55Q105.09688 36.01875 104.94063 35.2375Q104.83125 34.721874 104.83125 33.596874L104.83125 27.175L106.58125 27.175L106.58125 32.925Q106.58125 34.3 106.69063 34.784374Q106.8625 35.471874 107.39375 35.878124Q107.94063 36.26875 108.72188 36.26875Q109.51875 36.26875 110.20625 35.8625Q110.90938 35.45625 111.19063 34.76875Q111.4875 34.065624 111.4875 32.7375L111.4875 27.175L113.2375 27.175L113.2375 37.55L111.65938 37.55ZM114.84688 37.55L114.84688 27.175L116.425 27.175L116.425 28.753124Q117.03438 27.64375 117.55 27.3Q118.06563 26.940624 118.675 26.940624Q119.56563 26.940624 120.4875 27.503124L119.87813 29.14375Q119.2375 28.753124 118.59688 28.753124Q118.01875 28.753124 117.55 29.1125Q117.09688 29.45625 116.89375 30.065624Q116.6125 31.003124 116.6125 32.1125L116.6125 37.55L114.84688 37.55ZM128.97188 34.20625L130.78438 34.440624Q130.3625 36.01875 129.19063 36.909374Q128.03438 37.784374 126.22188 37.784374Q123.95625 37.784374 122.6125 36.39375Q121.28438 34.9875 121.28438 32.45625Q121.28438 29.83125 122.62813 28.39375Q123.97188 26.940624 126.12813 26.940624Q128.20625 26.940624 129.51875 28.3625Q130.84688 29.76875 130.84688 32.346874Q130.84688 32.503124 130.83125 32.815624L123.09688 32.815624Q123.19063 34.51875 124.06563 35.425Q124.94063 36.33125 126.2375 36.33125Q127.20625 36.33125 127.87813 35.83125Q128.56563 35.315624 128.97188 34.20625ZM123.19063 31.3625L128.9875 31.3625Q128.87813 30.065624 128.33125 29.409374Q127.4875 28.39375 126.14375 28.39375Q124.94063 28.39375 124.1125 29.20625Q123.28438 30.003124 123.19063 31.3625ZM138.8625 41.51875L138.8625 27.175L140.47188 27.175L140.47188 28.51875Q141.03438 27.7375 141.7375 27.346874Q142.45625 26.940624 143.47188 26.940624Q144.8 26.940624 145.81563 27.628124Q146.83125 28.315624 147.34688 29.565624Q147.87813 30.8 147.87813 32.284374Q147.87813 33.878124 147.3 35.159374Q146.7375 36.425 145.64375 37.1125Q144.55 37.784374 143.34688 37.784374Q142.47188 37.784374 141.76875 37.409374Q141.08125 37.034374 140.62813 36.471874L140.62813 41.51875L138.8625 41.51875ZM140.45625 32.425Q140.45625 34.425 141.26875 35.378124Q142.08125 36.33125 143.2375 36.33125Q144.40938 36.33125 145.2375 35.346874Q146.08125 34.3625 146.08125 32.26875Q146.08125 30.3 145.25313 29.315624Q144.44063 28.315624 143.31563 28.315624Q142.19063 28.315624 141.31563 29.378124Q140.45625 30.425 140.45625 32.425ZM156.64375 36.26875Q155.65938 37.096874 154.75313 37.440624Q153.84688 37.784374 152.81563 37.784374Q151.1125 37.784374 150.19063 36.95625Q149.26875 36.1125 149.26875 34.815624Q149.26875 34.05 149.6125 33.425Q149.97188 32.8 150.53438 32.425Q151.09688 32.034374 151.8 31.83125Q152.31563 31.70625 153.3625 31.565624Q155.4875 31.315624 156.4875 30.971874Q156.50313 30.6125 156.50313 30.503124Q156.50313 29.440624 156.00313 28.9875Q155.33125 28.39375 154.00313 28.39375Q152.75313 28.39375 152.15938 28.83125Q151.58125 29.26875 151.3 30.378124L149.58125 30.14375Q149.81563 29.034374 150.34688 28.3625Q150.87813 27.675 151.89375 27.315624Q152.90938 26.940624 154.25313 26.940624Q155.58125 26.940624 156.40938 27.253124Q157.2375 27.565624 157.62813 28.05Q158.01875 28.51875 158.175 29.2375Q158.26875 29.690624 158.26875 30.8625L158.26875 33.20625Q158.26875 35.659374 158.37813 36.315624Q158.4875 36.95625 158.83125 37.55L156.9875 37.55Q156.72188 37.003124 156.64375 36.26875ZM156.4875 32.346874Q155.53438 32.7375 153.6125 33.003124Q152.53438 33.159374 152.08125 33.3625Q151.64375 33.55 151.39375 33.925Q151.14375 34.3 151.14375 34.76875Q151.14375 35.471874 151.675 35.940624Q152.20625 36.409374 153.2375 36.409374Q154.25313 36.409374 155.03438 35.971874Q155.83125 35.51875 156.20625 34.753124Q156.4875 34.14375 156.4875 32.9875L156.4875 32.346874ZM160.84688 37.55L160.84688 27.175L162.425 27.175L162.425 28.753124Q163.03438 27.64375 163.55 27.3Q164.06563 26.940624 164.675 26.940624Q165.56563 26.940624 166.4875 27.503124L165.87813 29.14375Q165.2375 28.753124 164.59688 28.753124Q164.01875 28.753124 163.55 29.1125Q163.09688 29.45625 162.89375 30.065624Q162.6125 31.003124 162.6125 32.1125L162.6125 37.55L160.84688 37.55ZM173.84688 37.55L173.84688 27.175L175.425 27.175L175.425 28.753124Q176.03438 27.64375 176.55 27.3Q177.06563 26.940624 177.675 26.940624Q178.56563 26.940624 179.4875 27.503124L178.87813 29.14375Q178.2375 28.753124 177.59688 28.753124Q177.01875 28.753124 176.55 29.1125Q176.09688 29.45625 175.89375 30.065624Q175.6125 31.003124 175.6125 32.1125L175.6125 37.55L173.84688 37.55ZM187.64375 36.26875Q186.65938 37.096874 185.75313 37.440624Q184.84688 37.784374 183.81563 37.784374Q182.1125 37.784374 181.19063 36.95625Q180.26875 36.1125 180.26875 34.815624Q180.26875 34.05 180.6125 33.425Q180.97188 32.8 181.53438 32.425Q182.09688 32.034374 182.8 31.83125Q183.31563 31.70625 184.3625 31.565624Q186.4875 31.315624 187.4875 30.971874Q187.50313 30.6125 187.50313 30.503124Q187.50313 29.440624 187.00313 28.9875Q186.33125 28.39375 185.00313 28.39375Q183.75313 28.39375 183.15938 28.83125Q182.58125 29.26875 182.3 30.378124L180.58125 30.14375Q180.81563 29.034374 181.34688 28.3625Q181.87813 27.675 182.89375 27.315624Q183.90938 26.940624 185.25313 26.940624Q186.58125 26.940624 187.40938 27.253124Q188.2375 27.565624 188.62813 28.05Q189.01875 28.51875 189.175 29.2375Q189.26875 29.690624 189.26875 30.8625L189.26875 33.20625Q189.26875 35.659374 189.37813 36.315624Q189.4875 36.95625 189.83125 37.55L187.9875 37.55Q187.72188 37.003124 187.64375 36.26875ZM187.4875 32.346874Q186.53438 32.7375 184.6125 33.003124Q183.53438 33.159374 183.08125 33.3625Q182.64375 33.55 182.39375 33.925Q182.14375 34.3 182.14375 34.76875Q182.14375 35.471874 182.675 35.940624Q183.20625 36.409374 184.2375 36.409374Q185.25313 36.409374 186.03438 35.971874Q186.83125 35.51875 187.20625 34.753124Q187.4875 34.14375 187.4875 32.9875L187.4875 32.346874ZM191.8625 41.51875L191.8625 27.175L193.47188 27.175L193.47188 28.51875Q194.03438 27.7375 194.7375 27.346874Q195.45625 26.940624 196.47188 26.940624Q197.8 26.940624 198.81563 27.628124Q199.83125 28.315624 200.34688 29.565624Q200.87813 30.8 200.87813 32.284374Q200.87813 33.878124 200.3 35.159374Q199.7375 36.425 198.64375 37.1125Q197.55 37.784374 196.34688 37.784374Q195.47188 37.784374 194.76875 37.409374Q194.08125 37.034374 193.62813 36.471874L193.62813 41.51875L191.8625 41.51875ZM193.45625 32.425Q193.45625 34.425 194.26875 35.378124Q195.08125 36.33125 196.2375 36.33125Q197.40938 36.33125 198.2375 35.346874Q199.08125 34.3625 199.08125 32.26875Q199.08125 30.3 198.25313 29.315624Q197.44063 28.315624 196.31563 28.315624Q195.19063 28.315624 194.31563 29.378124Q193.45625 30.425 193.45625 32.425ZM202.8625 41.51875L202.8625 27.175L204.47188 27.175L204.47188 28.51875Q205.03438 27.7375 205.7375 27.346874Q206.45625 26.940624 207.47188 26.940624Q208.8 26.940624 209.81563 27.628124Q210.83125 28.315624 211.34688 29.565624Q211.87813 30.8 211.87813 32.284374Q211.87813 33.878124 211.3 35.159374Q210.7375 36.425 209.64375 37.1125Q208.55 37.784374 207.34688 37.784374Q206.47188 37.784374 205.76875 37.409374Q205.08125 37.034374 204.62813 36.471874L204.62813 41.51875L202.8625 41.51875ZM204.45625 32.425Q204.45625 34.425 205.26875 35.378124Q206.08125 36.33125 207.2375 36.33125Q208.40938 36.33125 209.2375 35.346874Q210.08125 34.3625 210.08125 32.26875Q210.08125 30.3 209.25313 29.315624Q208.44063 28.315624 207.31563 28.315624Q206.19063 28.315624 205.31563 29.378124Q204.45625 30.425 204.45625 32.425ZM213.22188 32.3625Q213.22188 29.4875 214.81563 28.096874Q216.15938 26.940624 218.08125 26.940624Q220.22188 26.940624 221.56563 28.346874Q222.925 29.753124 222.925 32.221874Q222.925 34.221874 222.33125 35.378124Q221.7375 36.51875 220.58125 37.159374Q219.44063 37.784374 218.08125 37.784374Q215.89375 37.784374 214.55 36.39375Q213.22188 34.9875 213.22188 32.3625ZM215.01875 32.3625Q215.01875 34.3625 215.87813 35.346874Q216.75313 36.33125 218.08125 36.33125Q219.39375 36.33125 220.25313 35.346874Q221.12813 34.346874 221.12813 32.3Q221.12813 30.378124 220.25313 29.39375Q219.37813 28.39375 218.08125 28.39375Q216.75313 28.39375 215.87813 29.39375Q215.01875 30.378124 215.01875 32.3625ZM224.84688 37.55L224.84688 27.175L226.425 27.175L226.425 28.753124Q227.03438 27.64375 227.55 27.3Q228.06563 26.940624 228.675 26.940624Q229.56563 26.940624 230.4875 27.503124L229.87813 29.14375Q229.2375 28.753124 228.59688 28.753124Q228.01875 28.753124 227.55 29.1125Q227.09688 29.45625 226.89375 30.065624Q226.6125 31.003124 226.6125 32.1125L226.6125 37.55L224.84688 37.55ZM235.70625 35.971874L235.95625 37.534374Q235.22188 37.690624 234.62813 37.690624Q233.675 37.690624 233.14375 37.39375Q232.62813 37.08125 232.40938 36.596874Q232.19063 36.096874 232.19063 34.51875L232.19063 28.55L230.90938 28.55L230.90938 27.175L232.19063 27.175L232.19063 24.6125L233.94063 23.55L233.94063 27.175L235.70625 27.175L235.70625 28.55L233.94063 28.55L233.94063 34.6125Q233.94063 35.3625 234.03438 35.58125Q234.12813 35.784374 234.33125 35.925Q234.55 36.05 234.94063 36.05Q235.22188 36.05 235.70625 35.971874ZM250.64375 36.26875Q249.65938 37.096874 248.75313 37.440624Q247.84688 37.784374 246.81563 37.784374Q245.1125 37.784374 244.19063 36.95625Q243.26875 36.1125 243.26875 34.815624Q243.26875 34.05 243.6125 33.425Q243.97188 32.8 244.53438 32.425Q245.09688 32.034374 245.8 31.83125Q246.31563 31.70625 247.3625 31.565624Q249.4875 31.315624 250.4875 30.971874Q250.50313 30.6125 250.50313 30.503124Q250.50313 29.440624 250.00313 28.9875Q249.33125 28.39375 248.00313 28.39375Q246.75313 28.39375 246.15938 28.83125Q245.58125 29.26875 245.3 30.378124L243.58125 30.14375Q243.81563 29.034374 244.34688 28.3625Q244.87813 27.675 245.89375 27.315624Q246.90938 26.940624 248.25313 26.940624Q249.58125 26.940624 250.40938 27.253124Q251.2375 27.565624 251.62813 28.05Q252.01875 28.51875 252.175 29.2375Q252.26875 29.690624 252.26875 30.8625L252.26875 33.20625Q252.26875 35.659374 252.37813 36.315624Q252.4875 36.95625 252.83125 37.55L250.9875 37.55Q250.72188 37.003124 250.64375 36.26875ZM250.4875 32.346874Q249.53438 32.7375 247.6125 33.003124Q246.53438 33.159374 246.08125 33.3625Q245.64375 33.55 245.39375 33.925Q245.14375 34.3 245.14375 34.76875Q245.14375 35.471874 245.675 35.940624Q246.20625 36.409374 247.2375 36.409374Q248.25313 36.409374 249.03438 35.971874Q249.83125 35.51875 250.20625 34.753124Q250.4875 34.14375 250.4875 32.9875L250.4875 32.346874ZM261.65936 37.55L261.65936 36.01875Q260.45624 37.784374 258.3781 37.784374Q257.45624 37.784374 256.65936 37.440624Q255.8625 37.08125 255.47188 36.55Q255.09688 36.01875 254.94063 35.2375Q254.83125 34.721874 254.83125 33.596874L254.83125 27.175L256.58124 27.175L256.58124 32.925Q256.58124 34.3 256.6906 34.784374Q256.8625 35.471874 257.39374 35.878124Q257.9406 36.26875 258.72186 36.26875Q259.51874 36.26875 260.20624 35.8625Q260.90936 35.45625 261.1906 34.76875Q261.4875 34.065624 261.4875 32.7375L261.4875 27.175L263.2375 27.175L263.2375 37.55L261.65936 37.55ZM274.70624 35.971874L274.95624 37.534374Q274.22186 37.690624 273.6281 37.690624Q272.675 37.690624 272.14374 37.39375Q271.6281 37.08125 271.40936 36.596874Q271.1906 36.096874 271.1906 34.51875L271.1906 28.55L269.90936 28.55L269.90936 27.175L271.1906 27.175L271.1906 24.6125L272.9406 23.55L272.9406 27.175L274.70624 27.175L274.70624 28.55L272.9406 28.55L272.9406 34.6125Q272.9406 35.3625 273.03436 35.58125Q273.1281 35.784374 273.33124 35.925Q273.55 36.05 273.9406 36.05Q274.22186 36.05 274.70624 35.971874ZM283.97186 34.20625L285.78436 34.440624Q285.3625 36.01875 284.1906 36.909374Q283.03436 37.784374 281.22186 37.784374Q278.95624 37.784374 277.6125 36.39375Q276.28436 34.9875 276.28436 32.45625Q276.28436 29.83125 277.6281 28.39375Q278.97186 26.940624 281.1281 26.940624Q283.20624 26.940624 284.51874 28.3625Q285.84686 29.76875 285.84686 32.346874Q285.84686 32.503124 285.83124 32.815624L278.09686 32.815624Q278.1906 34.51875 279.0656 35.425Q279.9406 36.33125 281.2375 36.33125Q282.20624 36.33125 282.8781 35.83125Q283.5656 35.315624 283.97186 34.20625ZM278.1906 31.3625L283.9875 31.3625Q283.8781 30.065624 283.33124 29.409374Q282.4875 28.39375 281.14374 28.39375Q279.9406 28.39375 279.1125 29.20625Q278.28436 30.003124 278.1906 31.3625ZM287.8625 37.55L287.8625 27.175L289.4406 27.175L289.4406 28.628124Q289.925 27.878124 290.7375 27.409374Q291.55 26.940624 292.58124 26.940624Q293.7375 26.940624 294.47186 27.425Q295.20624 27.89375 295.51874 28.753124Q296.7531 26.940624 298.72186 26.940624Q300.26874 26.940624 301.09686 27.8Q301.925 28.659374 301.925 30.425L301.925 37.55L300.175 37.55L300.175 31.01875Q300.175 29.95625 300.0031 29.503124Q299.83124 29.034374 299.3781 28.753124Q298.9406 28.471874 298.33124 28.471874Q297.2375 28.471874 296.5031 29.20625Q295.78436 29.925 295.78436 31.51875L295.78436 37.55L294.03436 37.55L294.03436 30.815624Q294.03436 29.64375 293.59686 29.065624Q293.175 28.471874 292.1906 28.471874Q291.45624 28.471874 290.8156 28.8625Q290.1906 29.253124 289.90936 30.003124Q289.6281 30.753124 289.6281 32.175L289.6281 37.55L287.8625 37.55ZM303.8625 41.51875L303.8625 27.175L305.47186 27.175L305.47186 28.51875Q306.03436 27.7375 306.7375 27.346874Q307.45624 26.940624 308.47186 26.940624Q309.8 26.940624 310.8156 27.628124Q311.83124 28.315624 312.34686 29.565624Q312.8781 30.8 312.8781 32.284374Q312.8781 33.878124 312.3 35.159374Q311.7375 36.425 310.64374 37.1125Q309.55 37.784374 308.34686 37.784374Q307.47186 37.784374 306.76874 37.409374Q306.08124 37.034374 305.6281 36.471874L305.6281 41.51875L303.8625 41.51875ZM305.45624 32.425Q305.45624 34.425 306.26874 35.378124Q307.08124 36.33125 308.2375 36.33125Q309.40936 36.33125 310.2375 35.346874Q311.08124 34.3625 311.08124 32.26875Q311.08124 30.3 310.2531 29.315624Q309.4406 28.315624 308.3156 28.315624Q307.1906 28.315624 306.3156 29.378124Q305.45624 30.425 305.45624 32.425ZM314.15936 34.45625L315.90936 34.175Q316.05 35.221874 316.72186 35.784374Q317.39374 36.33125 318.59686 36.33125Q319.8 36.33125 320.3781 35.846874Q320.97186 35.346874 320.97186 34.690624Q320.97186 34.096874 320.45624 33.753124Q320.09686 33.51875 318.65936 33.159374Q316.72186 32.659374 315.97186 32.315624Q315.2375 31.95625 314.84686 31.33125Q314.45624 30.690624 314.45624 29.925Q314.45624 29.2375 314.76874 28.64375Q315.09686 28.05 315.64374 27.659374Q316.05 27.3625 316.7531 27.159374Q317.47186 26.940624 318.28436 26.940624Q319.5031 26.940624 320.425 27.3Q321.34686 27.64375 321.78436 28.253124Q322.22186 28.846874 322.39374 29.846874L320.675 30.08125Q320.55 29.284374 319.9875 28.846874Q319.425 28.39375 318.40936 28.39375Q317.1906 28.39375 316.675 28.8Q316.15936 29.190624 316.15936 29.721874Q316.15936 30.065624 316.3781 30.346874Q316.58124 30.628124 317.05 30.815624Q317.3156 30.909374 318.59686 31.253124Q320.47186 31.753124 321.20624 32.08125Q321.9406 32.39375 322.3625 33.003124Q322.78436 33.596874 322.78436 34.503124Q322.78436 35.378124 322.26874 36.159374Q321.7531 36.940624 320.78436 37.3625Q319.8156 37.784374 318.59686 37.784374Q316.58124 37.784374 315.51874 36.940624Q314.45624 36.096874 314.15936 34.45625Z" fill-rule="nonzero"/></svg>